<svg xmlns="http://www.w3.org/2000/svg" xmlns:xlink="http://www.w3.org/1999/xlink" x="0px" y="0px"
	 viewBox="75 245 490 150" style="enable-background:new 0 0 652 652;" xml:space="preserve">
<path fill="#fff" d="M152,314.5v20.8c-0.9,1.7-2.2,3.7-3.9,5.8c-1.7,2.2-3.8,4.2-6.5,6c-2.7,1.9-5.9,3.5-9.6,4.7
	c-3.7,1.3-8.1,1.9-13.1,1.9c-5,0-9.4-0.6-13.2-2c-3.8-1.3-7.1-2.9-9.8-4.9c-2.7-2-5-4.1-6.7-6.5c-1.7-2.4-3.1-4.6-4-6.7v-55.7
	c0.9-2.1,2.3-4.3,4-6.7c1.7-2.4,4-4.5,6.7-6.5c2.7-2,6-3.6,9.8-4.9c3.8-1.3,8.2-2,13.2-2c5,0,9.3,0.6,13.1,1.9
	c3.7,1.3,6.9,2.8,9.6,4.7c2.7,1.8,4.8,3.8,6.5,6c1.7,2.2,2.9,4.1,3.9,6v19.3H132V282c-0.9-2.1-2.4-4-4.6-5.5c-2.2-1.6-5-2.4-8.5-2.4
	c-3.5,0-6.3,0.8-8.4,2.4c-2.2,1.6-3.7,3.4-4.6,5.5v47.6c0.9,2,2.4,3.8,4.6,5.4c2.2,1.6,5,2.4,8.5,2.4c3.5,0,6.3-0.8,8.4-2.4
	c2.2-1.6,3.7-3.4,4.6-5.4v-15.1L152,314.5L152,314.5z M229.9,280.4H248v5.9c1.9-2.1,4.4-3.9,7.5-5.3c3.1-1.4,6.8-2.1,11.2-2.1
	c3.4,0,6.4,0.6,9,1.7c2.6,1.1,4.9,2.4,6.7,4.1c1.8,1.6,3.4,3.4,4.5,5.3c1.1,1.9,2,3.6,2.6,5.2v41.9c-0.6,1.6-1.5,3.3-2.6,5.2
	c-1.1,1.9-2.6,3.6-4.5,5.3c-1.9,1.6-4.1,3-6.7,4.1c-2.6,1.1-5.6,1.7-9,1.7c-4.1,0-7.5-0.6-10.5-1.8c-2.9-1.2-5.3-2.7-7.3-4.5v25.1
	h-19.1V280.4z M259.9,294c-2.6,0-4.8,0.4-6.7,1.2c-1.8,0.8-3.2,1.9-4.3,3.1v35.6c1,1.2,2.5,2.3,4.3,3.1c1.8,0.8,4.1,1.2,6.7,1.2
	c3,0,5.3-0.6,7-1.9c1.7-1.3,2.8-2.4,3.4-3.4v-33.8c-0.6-1.1-1.7-2.2-3.5-3.4C265.2,294.6,262.9,294,259.9,294z M339.8,345.9
	c-2,2.1-4.6,3.9-7.6,5.3c-3,1.4-6.8,2.1-11.2,2.1c-3.5,0-6.5-0.6-9.1-1.7c-2.6-1.1-4.8-2.4-6.7-4.1c-1.9-1.6-3.4-3.4-4.5-5.3
	c-1.1-1.9-2-3.6-2.6-5.2v-41.9c0.6-1.6,1.5-3.3,2.6-5.2c1.1-1.9,2.6-3.6,4.5-5.3c1.8-1.6,4.1-3,6.7-4.1c2.6-1.1,5.6-1.7,9.1-1.7
	c4,0,7.4,0.6,10.3,1.8c2.9,1.2,5.3,2.7,7.3,4.5v-28.5h19.1v95.1h-18L339.8,345.9L339.8,345.9z M327.8,338.3c2.5,0,4.6-0.4,6.4-1.2
	c1.8-0.8,3.3-1.7,4.4-2.9v-36c-1.1-1.2-2.6-2.2-4.4-3c-1.8-0.8-4-1.2-6.5-1.2c-3,0-5.3,0.6-7,1.9c-1.7,1.3-2.8,2.4-3.4,3.4v33.8
	c0.6,1.1,1.7,2.2,3.5,3.4C322.5,337.7,324.9,338.3,327.8,338.3z M202.4,345.9c-2,2.1-4.6,3.9-7.6,5.3c-3,1.4-6.8,2.1-11.2,2.1
	c-3.5,0-6.5-0.6-9.1-1.7c-2.6-1.1-4.8-2.4-6.7-4.1c-1.9-1.6-3.4-3.4-4.5-5.3c-1.1-1.9-2-3.6-2.6-5.2v-41.9c0.6-1.6,1.5-3.3,2.6-5.2
	c1.1-1.9,2.6-3.6,4.5-5.3c1.8-1.6,4.1-3,6.7-4.1c2.6-1.1,5.6-1.7,9.1-1.7c4,0,7.4,0.6,10.3,1.8c2.9,1.2,5.3,2.7,7.3,4.5l3.4-4.8
	h15.8v71.4h-18L202.4,345.9L202.4,345.9z M190.5,338.3c2.5,0,4.6-0.4,6.4-1.2c1.8-0.8,3.3-1.7,4.4-2.9v-36c-1.1-1.2-2.6-2.2-4.4-3
	c-1.8-0.8-4-1.2-6.5-1.2c-3,0-5.3,0.6-7,1.9c-1.7,1.3-2.8,2.4-3.4,3.4v33.8c0.6,1.1,1.7,2.2,3.5,3.4
	C185.2,337.7,187.5,338.3,190.5,338.3z M366.9,296.5c0.8-1.8,1.9-3.8,3.5-5.9c1.6-2.1,3.6-4,6-5.8c2.5-1.8,5.4-3.3,8.8-4.4
	c3.4-1.1,7.4-1.7,11.9-1.7c4.5,0,8.4,0.6,11.7,1.7c3.3,1.1,6.2,2.5,8.6,4.1c2.4,1.6,4.3,3.2,5.6,5c1.4,1.7,2.4,3.2,3.1,4.3v28h-40.1
	v10.5c0.8,1.7,2.1,3.2,3.9,4.5c1.8,1.3,4.2,2,7.1,2c3,0,5.4-0.6,7.3-2c1.9-1.3,3.3-2.8,3.9-4.5v-4h17.7v10.4
	c-0.7,1.2-1.7,2.7-3.1,4.4c-1.4,1.7-3.3,3.4-5.6,4.9s-5.2,2.9-8.6,4.1c-3.3,1.1-7.2,1.7-11.7,1.7c-4.5,0-8.4-0.6-11.9-1.7
	c-3.4-1.1-6.4-2.6-8.8-4.4c-2.5-1.8-4.4-3.7-6-5.8c-1.6-2.1-2.7-4.1-3.5-5.9V296.5z M386.1,308.8h22.3v-8.7c-0.7-1.7-2-3.3-3.9-4.6
	c-1.9-1.3-4.4-2-7.3-2c-2.9,0-5.2,0.6-7.1,2c-1.8,1.3-3.2,2.9-3.9,4.6V308.8z M434.1,328.7h17.7v5.8c0.7,1.1,1.9,2.2,3.6,3.3
	c1.7,1.1,3.9,1.6,6.5,1.6c2.7,0,4.9-0.5,6.7-1.6c1.7-1.1,3-2.1,3.7-3.3v-6.2c-0.6-1.1-1.6-2.1-3.1-2.8c-1.5-0.7-3.3-1.3-5.4-1.8
	l-7.1-1.4c-3.6-0.7-6.8-1.6-9.4-2.6c-2.6-1-4.8-2.1-6.7-3.2c-1.8-1.1-3.3-2.2-4.3-3.3c-1.1-1.1-1.8-2-2.3-2.9v-18.1
	c0.6-1,1.6-2.2,2.9-3.8s3.2-3.1,5.4-4.5c2.3-1.4,5.1-2.7,8.3-3.7c3.3-1.1,7-1.6,11.3-1.6c4.4,0,8.2,0.5,11.4,1.6
	c3.2,1.1,5.9,2.3,8.2,3.9c2.2,1.5,4,3,5.4,4.6c1.4,1.6,2.4,2.8,3,3.8v10.8h-17.7v-5.3c-0.8-1.2-2-2.3-3.7-3.4c-1.7-1-4-1.5-6.7-1.5
	c-2.6,0-4.8,0.5-6.5,1.5c-1.7,1-2.9,2.1-3.6,3.3v5.4c0.6,1.1,1.7,2.1,3.2,2.8c1.5,0.7,3.3,1.3,5.3,1.7l7.2,1.6
	c3.6,0.8,6.8,1.7,9.4,2.7c2.6,1,4.8,2,6.6,3.1c1.8,1.1,3.2,2.1,4.3,3.2c1,1.1,1.8,2,2.3,2.8v19c-0.7,1.1-1.7,2.4-3.1,3.9
	c-1.4,1.6-3.2,3.1-5.4,4.5c-2.2,1.4-5,2.7-8.2,3.7c-3.3,1.1-7,1.6-11.4,1.6c-4.3,0-8.1-0.5-11.3-1.6c-3.2-1.1-6-2.3-8.2-3.9
	c-2.3-1.5-4.1-3-5.4-4.6c-1.4-1.6-2.3-2.9-2.9-3.9L434.1,328.7L434.1,328.7z M499.1,256.7h19.1v48.7h2.3l22-25h13.3v10.9L537,311.6
	l19.8,29.3v10.9h-14.9L524,325.4l-5.8,6.4v20h-19.1V256.7z M499,385.3h57.7v-16.6H499V385.3z"/>
</svg>
