<svg xmlns="http://www.w3.org/2000/svg" xml:space="preserve" viewBox="75 245 490 150"><path fill="#fff" d="M152 314.5v20.8a37 37 0 0 1-10.4 11.8 40 40 0 0 1-22.7 6.6 38 38 0 0 1-23-6.9q-4.1-3-6.7-6.5a38 38 0 0 1-4-6.7v-55.7a38 38 0 0 1 4-6.7q2.6-3.5 6.7-6.5t9.8-4.9q5.7-2 13.2-2a40 40 0 0 1 22.7 6.6 27 27 0 0 1 6.5 6q2.5 3.2 3.9 6v19.3h-20V282q-1.3-3.2-4.6-5.5a14 14 0 0 0-8.5-2.4 13.5 13.5 0 0 0-13 7.9v47.6a14 14 0 0 0 13.1 7.8 14 14 0 0 0 13-7.8v-15.1zm77.9-34.1H248v5.9q2.9-3.2 7.5-5.3a27 27 0 0 1 11.2-2.1 23 23 0 0 1 15.7 5.8q2.8 2.4 4.5 5.3 1.7 2.8 2.6 5.2v41.9q-1 2.4-2.6 5.2a22 22 0 0 1-4.5 5.3 23 23 0 0 1-15.7 5.8q-6 0-10.5-1.8a25 25 0 0 1-7.3-4.5v25.1h-19.1v-91.8zm30 13.6a17 17 0 0 0-6.7 1.2q-2.7 1.3-4.3 3.1v35.6a12 12 0 0 0 4.3 3.1q2.8 1.2 6.7 1.2 4.5 0 7-1.9 2.5-2 3.4-3.4v-33.8q-.9-1.6-3.5-3.4a12 12 0 0 0-6.9-1.7m79.9 51.9q-3 3.2-7.6 5.3t-11.2 2.1a23 23 0 0 1-15.8-5.8 20 20 0 0 1-4.5-5.3q-1.7-2.8-2.6-5.2v-41.9q1-2.4 2.6-5.2t4.5-5.3a25 25 0 0 1 15.8-5.8q6 0 10.3 1.8a25 25 0 0 1 7.3 4.5v-28.5h19.1v95.1h-18zm-12-7.6q3.7 0 6.4-1.2a13 13 0 0 0 4.4-2.9v-36a13 13 0 0 0-4.4-3 16 16 0 0 0-6.5-1.2q-4.5 0-7 1.9a13 13 0 0 0-3.4 3.4v33.8q.9 1.6 3.5 3.4t7 1.8m-125.4 7.6q-3 3.2-7.6 5.3t-11.2 2.1a23 23 0 0 1-15.8-5.8 20 20 0 0 1-4.5-5.3q-1.7-2.8-2.6-5.2v-41.9q1-2.4 2.6-5.2t4.5-5.3a25 25 0 0 1 15.8-5.8q6 0 10.3 1.8a25 25 0 0 1 7.3 4.5l3.4-4.8h15.8v71.4h-18zm-11.9-7.6q3.7 0 6.4-1.2a13 13 0 0 0 4.4-2.9v-36a13 13 0 0 0-4.4-3 16 16 0 0 0-6.5-1.2q-4.5 0-7 1.9a13 13 0 0 0-3.4 3.4v33.8q.8 1.6 3.5 3.4 2.5 1.8 7 1.8m176.4-41.8a29 29 0 0 1 18.3-16.1q5.1-1.7 11.9-1.7a37 37 0 0 1 20.3 5.8q3.6 2.4 5.6 5t3.1 4.3v28H386v10.5q1.2 2.6 3.9 4.5a12 12 0 0 0 7.1 2q4.5 0 7.3-2a10 10 0 0 0 3.9-4.5v-4h17.7v10.4q-1 1.8-3.1 4.4t-5.6 4.9c-3.5 2.3-5.2 2.9-8.6 4.1a37 37 0 0 1-11.7 1.7q-6.7 0-11.9-1.7a30 30 0 0 1-18.3-16.1v-39.5zm19.2 12.3h22.3v-8.7q-1-2.6-3.9-4.6t-7.3-2a12 12 0 0 0-11 6.6zm48 19.9h17.7v5.8a12 12 0 0 0 10.1 4.9q4 0 6.7-1.6a11 11 0 0 0 3.7-3.3v-6.2a7 7 0 0 0-3.1-2.8q-2.3-1-5.4-1.8l-7.1-1.4a57 57 0 0 1-16.1-5.8 20 20 0 0 1-6.6-6.2v-18.1l2.9-3.8c1.9-2.4 3.2-3.1 5.4-4.5a38 38 0 0 1 39.2.2 28 28 0 0 1 8.4 8.4v10.8h-17.7V298q-1.2-1.8-3.7-3.4-2.6-1.5-6.7-1.5t-6.5 1.5a10 10 0 0 0-3.6 3.3v5.4a7 7 0 0 0 3.2 2.8q2.3 1 5.3 1.7l7.2 1.6a68 68 0 0 1 16 5.8q2.7 1.6 4.3 3.2t2.3 2.8v19a27 27 0 0 1-8.5 8.4 35 35 0 0 1-19.6 5.3 35 35 0 0 1-19.5-5.5q-3.5-2.2-5.4-4.6a27 27 0 0 1-2.9-3.9zm65-72h19.1v48.7h2.3l22-25h13.3v10.9L537 311.6l19.8 29.3v10.9h-14.9L524 325.4l-5.8 6.4v20h-19.1zm-.1 128.6h57.7v-16.6H499z"/></svg>