<svg xmlns="http://www.w3.org/2000/svg" viewBox="0 0 119.3 52"><rect width="100%" height="100%" fill="#fff"/><path d="M0 0v52h119.3V0zm116 48.8H3.3V3.2H116zM17.4 27.3c0-5.9 4.9-9.3 9.3-9.3 3.2 0 6.1 1.2 7.7 4l-3 1.6a6 6 0 0 0-4.6-2.5c-2.6 0-5.7 2-5.7 6.1s3 6.2 6 6.2q3.1-.2 4.7-3l3 1.4a9 9 0 0 1-8.3 4.8 9 9 0 0 1-9.2-9.3Zm28 9.3c2.5 0 4.9-1.1 6-2.7V36H55V18.4h-3.6v2.2c-1.2-1.6-3.6-2.6-6-2.6-5.4 0-9.2 4-9.2 9.3s3.8 9.3 9.2 9.3m.4-15.3c3.4 0 5.7 2.5 5.7 6s-2.3 6-5.7 6-5.8-2.7-5.8-6.1 2.4-5.9 5.8-5.9m27.8.5h-2.8v-3.5h2.8v-5.2h3.8v5.2h4v3.5h-4v14.3h-3.8zm18.2 14.8c2.4 0 4.7-1.1 6-2.7V36h3.6V18.4h-3.7v2.2c-1-1.6-3.5-2.6-6-2.6-5.3 0-9.1 4-9.1 9.3s3.8 9.3 9.2 9.3m.3-15.3c3.4 0 5.7 2.5 5.7 6s-2.3 6-5.7 6-5.8-2.7-5.8-6.1 2.4-5.9 5.8-5.9M62.6 36h-3.8V18.4h3.5v3q1.1-3.1 4.2-3.3l1.3.1v3.5c-2.8-.4-5.2 1.6-5.2 6.2z"/></svg>