<svg version="1.0" xmlns="http://www.w3.org/2000/svg"
 width="509.000000pt" height="63.000000pt" viewBox="0 0 509.000000 63.000000"
 preserveAspectRatio="xMidYMid meet">

<g transform="translate(0.000000,63.000000) scale(0.100000,-0.100000)"
fill="#ffffff" stroke="none">
<path d="M280 615 c-7 -8 -13 -26 -14 -39 -1 -20 -8 -26 -37 -31 -120 -20
-229 -155 -229 -283 0 -171 165 -267 303 -176 22 14 40 24 42 22 2 -2 10 -21
19 -42 16 -38 17 -38 36 -21 67 61 40 220 -47 280 -47 31 -100 33 -137 4 l-26
-21 20 -25 c11 -14 20 -34 20 -43 0 -24 -24 -42 -44 -34 -70 27 -31 199 59
254 20 12 37 21 39 19 2 -2 11 -19 20 -36 9 -18 19 -33 22 -33 12 0 64 42 64
51 0 9 -90 169 -95 169 -1 0 -8 -7 -15 -15z"/>
<path d="M481 553 c-6 -21 -11 -42 -11 -46 0 -5 -13 -20 -30 -34 -34 -28 -40
-63 -11 -63 17 0 19 -10 23 -127 3 -110 7 -134 27 -173 37 -72 38 -72 84 -48
23 11 43 21 44 22 1 1 -4 26 -12 56 -21 78 -19 87 14 95 69 15 87 -29 54 -131
-19 -61 -11 -78 39 -89 30 -7 144 10 168 25 11 7 11 11 1 24 -10 12 -11 40 -6
114 8 112 -1 132 -58 132 l-32 1 28 21 c41 30 49 58 32 120 -9 36 -23 62 -46
82 -30 27 -36 28 -93 22 -34 -3 -72 -8 -87 -12 -20 -4 -27 -1 -37 20 -9 21
-19 26 -46 26 -32 0 -36 -3 -45 -37z m207 -146 c4 -34 -18 -61 -70 -88 -21
-10 -40 -19 -43 -19 -7 0 -6 70 1 109 7 31 8 32 58 29 48 -3 51 -5 54 -31z"/>
<path d="M886 534 c-31 -67 -31 -71 -8 -78 15 -5 17 -22 17 -158 0 -173 10
-206 69 -235 51 -24 96 -11 145 42 23 25 41 49 41 55 0 6 -11 26 -25 44 -31
41 -52 100 -57 160 -3 47 -3 48 36 61 42 15 56 29 56 60 0 17 -20 27 -119 63
-65 23 -121 42 -124 42 -3 0 -17 -25 -31 -56z"/>
<path d="M2268 530 l-27 -59 24 -18 c21 -17 23 -22 15 -68 -14 -78 -11 -177 5
-232 36 -122 148 -138 225 -32 l29 41 -30 40 c-33 47 -59 124 -59 179 0 34 2
37 35 43 20 4 40 15 46 24 8 13 21 17 44 14 l32 -4 -13 -46 c-28 -92 -16 -109
95 -128 127 -22 175 -54 151 -99 -12 -22 -64 -55 -88 -55 -22 0 -42 33 -42 69
0 31 -5 40 -25 49 -42 19 -74 14 -106 -17 -59 -59 -29 -164 57 -202 65 -29
184 -28 253 1 61 27 125 93 142 148 14 49 -2 106 -34 123 -12 7 -24 13 -26 15
-1 1 11 21 29 42 41 52 37 72 -21 94 -26 9 -81 39 -123 67 -86 56 -118 66
-182 56 -48 -7 -114 -55 -114 -83 0 -14 -1 -14 -12 1 -11 13 -226 98 -247 97
-3 -1 -18 -27 -33 -60z m469 -136 c19 -14 53 -37 76 -51 l42 -24 -50 6 c-79
11 -115 36 -115 81 0 20 8 18 47 -12z"/>
<path d="M3295 549 c-5 -31 -17 -51 -41 -73 -40 -35 -45 -66 -11 -66 22 0 22
-2 22 -118 0 -106 2 -122 27 -175 15 -31 33 -60 41 -63 20 -7 87 22 87 38 -1
7 -7 40 -15 73 -8 32 -13 61 -11 63 2 1 19 5 38 8 41 7 72 -17 65 -50 -2 -12
-10 -49 -18 -83 -10 -51 -11 -65 0 -75 16 -17 123 -15 174 1 33 11 37 16 30
34 -8 23 -8 39 -2 148 4 77 -8 99 -53 99 l-30 0 31 29 c38 36 41 84 10 148
-34 71 -93 87 -219 58 -20 -5 -27 -1 -35 17 -7 17 -20 24 -47 26 -35 3 -36 2
-43 -39z m209 -131 c15 -25 -10 -65 -60 -94 -22 -13 -44 -24 -47 -24 -4 0 -7
32 -7 71 l0 70 51 -3 c35 -2 55 -8 63 -20z"/>
<path d="M4040 570 c-22 -40 -67 -53 -182 -51 -103 1 -110 0 -133 -23 -27 -27
-33 -72 -15 -107 10 -18 12 -18 35 -3 28 18 29 16 15 -21 -9 -22 -15 -26 -35
-21 -24 6 -25 5 -25 -44 0 -43 3 -50 20 -50 17 0 20 -7 20 -44 0 -52 30 -101
80 -130 51 -30 188 -29 246 1 51 27 100 82 109 121 8 39 -15 95 -49 117 -31
20 -106 32 -106 17 0 -22 -51 -70 -80 -75 -33 -7 -80 10 -80 28 0 7 7 18 15
25 8 7 15 20 15 30 0 14 -5 17 -22 12 -19 -5 -21 -2 -14 28 3 19 8 35 9 37 2
1 38 -1 81 -7 134 -17 206 17 206 96 0 65 -83 114 -110 64z"/>
<path d="M1693 570 c-15 -6 -23 -18 -23 -34 0 -15 -8 -30 -20 -36 -11 -6 -26
-22 -33 -37 l-14 -26 -7 35 c-7 40 -49 84 -88 93 -35 9 -92 -19 -119 -57 l-21
-29 31 -59 c34 -63 51 -164 34 -195 -9 -15 -16 -4 -41 61 -16 43 -40 112 -51
152 -12 39 -25 72 -28 72 -4 0 -37 -10 -73 -21 l-67 -22 4 -126 c5 -137 15
-192 39 -216 20 -20 57 -19 83 2 l21 18 -20 113 c-12 63 -20 116 -17 118 2 2
11 -20 20 -49 9 -28 34 -87 56 -131 l40 -79 -20 -38 -20 -39 27 -10 c42 -16
89 5 129 57 54 71 95 198 95 297 0 33 4 42 18 43 9 1 24 3 32 5 12 2 16 -11
18 -70 2 -61 0 -77 -18 -99 -40 -52 -17 -135 53 -187 40 -30 146 -29 203 2 92
48 153 162 141 265 -13 108 -92 179 -213 193 -40 5 -63 13 -72 26 -14 19 -43
22 -79 8z m141 -124 c68 -28 86 -94 39 -145 -29 -30 -79 -47 -100 -33 -9 5
-10 33 -6 100 7 101 8 103 67 78z"/>
<path d="M4403 557 c-27 -13 -43 -28 -43 -39 0 -10 -16 -40 -34 -66 -41 -57
-68 -117 -86 -192 -8 -34 -22 -61 -37 -73 -12 -10 -23 -28 -23 -39 0 -17 4
-19 25 -14 22 6 25 3 26 -21 1 -60 8 -64 69 -38 44 18 56 28 58 48 4 34 18 43
76 52 l49 7 -6 -39 c-3 -21 -9 -47 -12 -59 -5 -15 0 -23 20 -32 78 -36 141 9
161 113 4 22 14 45 21 51 23 16 7 104 -18 104 -12 0 -30 23 -56 72 -21 40 -63
98 -93 130 l-55 57 -42 -22z m62 -248 c6 -23 2 -28 -26 -38 -61 -21 -67 -17
-58 40 4 28 14 67 20 88 l12 36 23 -50 c13 -27 26 -62 29 -76z"/>
<path d="M4745 545 c-58 -27 -60 -30 -34 -64 50 -68 29 -220 -52 -370 -16 -30
-29 -58 -29 -62 0 -23 57 -16 147 17 115 42 163 42 218 -1 20 -15 43 -24 51
-21 22 9 44 69 44 124 0 96 -63 146 -155 125 -25 -6 -45 -9 -45 -8 0 2 11 27
25 57 27 58 34 151 12 179 -31 40 -122 52 -182 24z"/>
</g>
</svg>
