<svg xmlns="http://www.w3.org/2000/svg" width="190" height="23" fill="none"><path fill="#fff" d="M160.26 23h4.25V0h-4.25zM0 23h4.25V0H0zm185.75-6V0H190v23h-4.5L174.38 6.34V23h-4.25V0h4.25zM126.92 0v10.26h-10.25V0h-4.25v23h4.25v-8.52h10.25v8.51h4.25V0zm-58.7 0h18.7v4.22h-7.23V23h-4.25V4.22h-7.22zM8.54 4.22a3.04 3.04 0 0 1 3.05 3.03 3.04 3.04 0 0 1-3.05 3.02h-.01v4.22h.01c4.03 0 7.3-3.25 7.3-7.24S12.59 0 8.56 0h-.01z"/><path fill="#fff" fill-rule="evenodd" d="M65.23 23h-4.25l-4.78-8.52h-4.93V23h-4.25V0h10.26c4.03 0 7.3 3.25 7.3 7.24 0 3-1.84 5.57-4.45 6.67zM51.27 4.22v6.05h6.01a3.04 3.04 0 0 0 3.05-3.03 3.04 3.04 0 0 0-3.05-3.02zM152.38 23h4.25L148.3 0h-4.9l-8.33 23h4.25l1.56-4.3h9.94zm-9.97-8.52 3.44-9.5 3.45 9.5zM19.38 11.5c0-6.35 5.2-11.5 11.6-11.5s11.58 5.15 11.58 11.5S37.37 23 30.97 23s-11.59-5.15-11.59-11.5m3.93 0c0 4.2 3.43 7.6 7.66 7.6s7.67-3.4 7.67-7.6-3.43-7.6-7.67-7.6a7.63 7.63 0 0 0-7.66 7.6" clip-rule="evenodd"/><path fill="#fff" d="M96.96 4.92a7.7 7.7 0 0 1 7.78 0l2.8-2.79a11.6 11.6 0 0 0-13.39 0zm3.89 14.22a7.7 7.7 0 0 0 3.89-1.05l2.8 2.79a11.6 11.6 0 0 1-6.7 2.12 11.55 11.55 0 0 1-11.58-11.5c0-2.47.8-4.76 2.14-6.64l2.81 2.8a7.5 7.5 0 0 0-1.06 3.85c0 4.2 3.46 7.63 7.7 7.63"/></svg>