<svg xmlns="https://www.w3.org/2000/svg" xmlns:xlink="https://www.w3.org/1999/xlink" x="0px" y="0px"
	 viewBox="15 275 610 90" style="enable-background:new 0 0 652 652;" xml:space="preserve">
<path fill="#1692D0" d="M78.7,283.1H50.1c-4.2,0-14.7,0.9-18.4,11.9c-3.9,11.7-2.6,18.2-2.6,19.2c0,1,0.6,6.6,9.1,9.8c1.8,0.7,8.3,3.1,10.1,3.7
	c4.5,1.6,9.4,4.3,7.4,11.7c-1.9,6.7-3.8,7.2-10.1,7.2H22.8l-2.2,12.7h38.3c2.8,0,13.3-1.1,16.7-14.2c3.2-11.9,2.4-17.5,2.2-18.5
	c-0.2-0.9-0.4-6.5-9.1-9.8c-2.4-0.9-11.4-4.1-12.7-4.6c-1.7-0.6-6.9-3-4.8-10.5c1.4-5.1,3.3-5.9,8-6.1c0.4,0,17.6,0,17.6,0
	L78.7,283.1z M191,283.1h-28.6c-4.2,0-14.7,0.9-18.4,11.9c-3.9,11.7-2.6,18.2-2.6,19.2c0,1,0.6,6.6,9.1,9.8
	c1.8,0.7,8.3,3.1,10.1,3.7c4.5,1.6,9.4,4.3,7.4,11.7c-1.9,6.7-3.8,7.2-10,7.2h-22.7l-2.2,12.7h38.3c2.8,0,13.3-1.1,16.7-14.2
	c3.2-11.9,2.4-17.5,2.2-18.5c-0.2-0.9-0.4-6.5-9.1-9.8c-2.4-0.9-11.4-4.1-12.7-4.6c-1.7-0.6-6.9-3-4.9-10.5c1.4-5.1,3.3-5.9,8-6.1
	c0.4,0,17.6,0,17.6,0L191,283.1z M620.6,283.1h-30.4c0,0-10.6,0.7-17,7.1c0,0-7.4,6.2-11.1,28.3c0,0-3,13.7-2.4,23.5
	c0.9,13.5,12.9,17.3,20,17.3h33.4l2.2-12.7h-24.1c-2.6-0.1-10.1-1.3-9.5-11.2c0.8-13.7,2.7-21.3,6.9-32.3c2.7-7.1,11.1-7.4,11.1-7.4
	h18.8L620.6,283.1z M558.5,283.1h-20.9l-12.8,76.2h21L558.5,283.1z M117.3,331l-4.6,28.4H91.6l5.1-31.8L82,283h20.5l8.6,26l15.2-26
	h20.1L117.3,331z M253.1,295.8H235l-10.9,63.6h-21l10.9-63.6h-20.3l2-12.8h59.4L253.1,295.8z M528.1,295.8H510l-10.9,63.6h-21
	l10.9-63.6h-20.3l2-12.8h59.4L528.1,295.8z M310.1,295.8h-31.6l-2.6,16.1h23.4l-2,12.7h-23.4l-3.6,22h31.6l-2,12.8h-52.7l12.3-76.4
	h52.7L310.1,295.8z M334.8,308.2h0.3v0.1L334.8,308.2L334.8,308.2z M376.4,283.1l-21.2,48.3l-6.1-48.3h-31.2l-12.2,76.2h19.5
	l8.1-49.9l6.3,49.9h18l22.7-51.7l-0.6,3.4c0,0.1,0,0.1,0,0.2l-7.7,48.1h19.4l12.2-76.2L376.4,283.1L376.4,283.1z M428,329.7
	l13.8-29.2l4.9,29.2H428z M458.8,283.1h-28.1l-36.1,76.2h19.3l8.9-18.8h25.7l3.2,18.8h20L458.8,283.1z"/>
</svg>
