<svg xmlns="http://www.w3.org/2000/svg" xml:space="preserve" viewBox="15 275 610 90"><path fill="#1692d0" d="M78.7 283.1H50.1c-4.2 0-14.7.9-18.4 11.9-3.9 11.7-2.6 18.2-2.6 19.2s.6 6.6 9.1 9.8l10.1 3.7c4.5 1.6 9.4 4.3 7.4 11.7-1.9 6.7-3.8 7.2-10.1 7.2H22.8l-2.2 12.7h38.3c2.8 0 13.3-1.1 16.7-14.2a45 45 0 0 0 2.2-18.5c-.2-.9-.4-6.5-9.1-9.8L56 312.2c-1.7-.6-6.9-3-4.8-10.5 1.4-5.1 3.3-5.9 8-6.1h17.6zm112.3 0h-28.6c-4.2 0-14.7.9-18.4 11.9-3.9 11.7-2.6 18.2-2.6 19.2s.6 6.6 9.1 9.8l10.1 3.7c4.5 1.6 9.4 4.3 7.4 11.7-1.9 6.7-3.8 7.2-10 7.2h-22.7l-2.2 12.7h38.3c2.8 0 13.3-1.1 16.7-14.2a45 45 0 0 0 2.2-18.5c-.2-.9-.4-6.5-9.1-9.8l-12.7-4.6c-1.7-.6-6.9-3-4.9-10.5 1.4-5.1 3.3-5.9 8-6.1h17.6zm429.6 0h-30.4s-10.6.7-17 7.1c0 0-7.4 6.2-11.1 28.3 0 0-3 13.7-2.4 23.5.9 13.5 12.9 17.3 20 17.3h33.4l2.2-12.7h-24.1c-2.6-.1-10.1-1.3-9.5-11.2a94 94 0 0 1 6.9-32.3c2.7-7.1 11.1-7.4 11.1-7.4h18.8zm-62.1 0h-20.9l-12.8 76.2h21zM117.3 331l-4.6 28.4H91.6l5.1-31.8L82 283h20.5l8.6 26 15.2-26h20.1zm135.8-35.2H235l-10.9 63.6h-21l10.9-63.6h-20.3l2-12.8h59.4zm275 0H510l-10.9 63.6h-21l10.9-63.6h-20.3l2-12.8h59.4zm-218 0h-31.6l-2.6 16.1h23.4l-2 12.7h-23.4l-3.6 22h31.6l-2 12.8h-52.7l12.3-76.4h52.7zm24.7 12.4h.3v.1zm41.6-25.1-21.2 48.3-6.1-48.3h-31.2l-12.2 76.2h19.5l8.1-49.9 6.3 49.9h18l22.7-51.7-.6 3.4v.2l-7.7 48.1h19.4l12.2-76.2zm51.6 46.6 13.8-29.2 4.9 29.2zm30.8-46.6h-28.1l-36.1 76.2h19.3l8.9-18.8h25.7l3.2 18.8h20z"/></svg>