<svg xmlns="http://www.w3.org/2000/svg" width="132" height="132" viewBox="-10 0 132 132"><path fill="url(#brave-gradient-a)" fill-rule="evenodd" d="m109.3 31.4 3.1-7.5-8.7-9C99 10.2 89 13 89 13L77.4 0H37.2L25.7 13s-10-2.8-14.8 2l-8.7 8.9 3 7.5-3.8 11.2 12.8 48.8c2.7 10.5 4.5 14.6 12 19.9l23.6 15.9c2.2 1.4 5 3.7 7.5 3.7s5.3-2.3 7.6-3.7 15.9-10.6 23.5-16c7.5-5.2 9.3-9.3 12-19.8l12.8-48.8z" clip-rule="evenodd"/><path fill="#fff" fill-rule="evenodd" d="M71.6 23.6c1.7 0 14.1-2.4 14.1-2.4s14.7 17.8 14.7 21.6c0 3.2-1.2 4.4-2.7 5.8l-1 1-11 11.7-.4.4c-1.1 1.1-2.7 2.7-1.6 5.4l.3.6c1.2 3 2.8 6.6.8 10.2-2.1 4-5.7 6.5-8 6.1S69 80.8 67 79.5 58.8 73 58.8 71c0-1.7 4.5-4.4 6.7-5.8l1-.6 1-.7c2-1.2 5.7-3.5 5.8-4.5.1-1.2 0-1.6-1.5-4.6l-1.2-2C69 50 67.3 47 67.7 45c.4-2.4 4.2-3.8 7.4-5l1.2-.4 3.3-1.3 7.3-2.7c.8-.4.6-.8-1.8-1l-1.2-.1c-3-.4-8.7-1-11.4-.2l-1.7.5c-3.1.8-6.8 1.8-7.2 2.4l-.2.3c-.3.5-.6.8-.2 2.9l.7 3.3 2.3 12.8v.7c.3 1.7.4 2.8-1.6 3.3l-.5.1c-2.3.5-5.6 1.3-6.8 1.3a50 50 0 0 1-7.3-1.4c-2-.5-1.8-1.6-1.6-3.3v-.7l3-16.1c.4-2.1.2-2.4-.2-3l-.2-.2c-.3-.6-4-1.6-7.1-2.4l-1.8-.5c-2.7-.7-8.3-.2-11.4.2h-1.1c-2.5.3-2.7.7-1.9 1l7.3 2.8 3.4 1.3 1.1.4c3.2 1.2 7 2.6 7.4 5 .4 2.1-1.3 5-2.9 7.7l-1.1 2c-1.7 3.1-1.7 3.5-1.6 4.7.1 1 3.7 3.3 5.8 4.5l1 .7 1 .6c2.2 1.4 6.8 4.1 6.8 5.8 0 2-6.3 7.2-8.3 8.5s-7.5 4-9.8 4.5-5.9-2.2-8-6-.4-7.4.9-10.3l.2-.6c1.1-2.7-.5-4.3-1.6-5.4l-.3-.4-6.4-6.7-4.7-5-1-1c-1.5-1.4-2.7-2.6-2.7-5.8 0-3.8 14.7-21.6 14.7-21.6s12.5 2.4 14.1 2.4c1.4 0 4-.9 6.7-1.8l2-.7c3.4-1.1 5.6-1.1 5.6-1.1s2.2 0 5.6 1l2 .8a26 26 0 0 0 6.7 1.8m-2.2 63 5.2 2.7c1 .6.4 1.6-.4 2.2l-13.6 10.6c-1 1-2.3 2.1-3.3 2.1s-2.3-1.2-3.3-2l-.5-.5c-1-1-12.2-9.6-13-10.2S39 90 40 89.3l5.2-2.8 2.5-1.2c4-2 8.8-3.8 9.6-3.8s5.7 1.7 9.6 3.8z" clip-rule="evenodd"/><path fill="url(#brave-gradient-b)" fill-rule="evenodd" d="M89 13 77.3 0H37.2L25.7 13s-10-2.8-14.8 2c0 0 13.4-1.3 18 6.2 0 0 12.5 2.4 14.1 2.4 1.7 0 5.4-1.4 8.7-2.5 3.4-1.1 5.6-1.1 5.6-1.1s2.2 0 5.6 1c3.4 1.2 7 2.6 8.7 2.6s14.1-2.4 14.1-2.4c4.6-7.5 18-6.3 18-6.3C99 10.2 89 13 89 13" clip-rule="evenodd"/><defs><linearGradient id="brave-gradient-a" x1="1.4" x2="113.2" y1="131.9" y2="131.9" gradientUnits="userSpaceOnUse"><stop offset="0" stop-color="#f50"/><stop offset=".4" stop-color="#f50"/><stop offset=".6" stop-color="#ff2000"/><stop offset="1" stop-color="#ff2000"/></linearGradient><linearGradient id="brave-gradient-b" x1="12.9" x2="103.7" y1="23.5" y2="23.5" gradientUnits="userSpaceOnUse"><stop offset="0" stop-color="#ff452a"/><stop offset="1" stop-color="#ff2000"/></linearGradient></defs></svg>