<svg xmlns="http://www.w3.org/2000/svg" viewBox="0 0 80 70"><path id="Shadow" d="m71 20.7-.4-.5-.5-.5-.5-.5-.5-.5-.5-.5-.5-.5-.5-.5a27 27 0 0 1 7.9 18.5c0 16.6-16.8 30-37.5 30-11.6 0-22-4.2-28.8-10.8l.5.5.5.5.5.5.5.5.5.5.5.5.5.5A41 41 0 0 0 42 69.8c20.7 0 37.5-13.5 37.5-30 0-7.1-3-13.8-8.4-19"/><g id="Body"><path id="Background" fill="#fbf0df" d="M73 35.7c0 15.2-15.7 27.5-35 27.5S3 51 3 35.7C3 26.3 9 17.9 18.2 13S33.2 3 38 3s9 4.1 19.8 10C67 18 73 26.3 73 35.7"/><path id="Bottom_Shadow" fill="#f6dece" d="M73 35.7a22 22 0 0 0-.8-5.8c-2.7 33.3-43.3 35-59.3 25A40 40 0 0 0 38 63.2c19.3 0 35-12.3 35-27.5" data-name="Bottom Shadow"/><path id="Light_Shine" fill="#fffefc" d="M24.5 11.2C29 8.5 35 3.5 40.8 3.5A9 9 0 0 0 38 3q-3.5.2-8.2 3.1l-3.6 2.2-8 4.7C8.7 18 3 26.6 3 35.7v1.2c6-21.4 17-23 21.5-25.7" data-name="Light Shine"/><path id="Top" fill="#ccbea7" fill-rule="evenodd" d="M35.1 5.5A16 16 0 0 1 29.5 18q-.3.6.3.6c3.4-1.3 8-5.2 6-13.2 0-.4-.7-.3-.7.1m2.3 0A16 16 0 0 1 39 19q0 .7.6.4c2.1-2.8 4-8.4-1.7-14.4q-.6-.3-.5.5m2.8-.1A16 16 0 0 1 47 17a.3.3 0 0 0 .7.1c.9-3.5.3-9.4-7.2-12.5-.4-.2-.7.4-.4.6ZM21.7 15.8a17 17 0 0 0 10.5-9c.1-.4.7-.3.6.1-1.7 8-7.5 9.7-11.1 9.5-.4 0-.4-.5 0-.6"/><path id="Outline" d="M38 65.8C17.3 65.8.5 52.3.5 35.7c0-10 6.2-19.3 16.5-25q4.5-2.3 7.9-4.5L28.5 4Q33.6.7 38 .5c4.4-.2 5.6 1.2 8.9 3.1l3 2 9 5.2c10.4 5.6 16.6 14.9 16.6 24.9 0 16.6-16.8 30-37.5 30M38 3q-3.5.2-8.2 3.1l-3.6 2.2-8 4.7C8.7 18 3 26.6 3 35.7c0 15.2 15.7 27.6 35 27.6s35-12.4 35-27.6c0-9-5.7-17.6-15.2-22.7q-5.6-3-9.1-5.4l-3-1.8Q41.4 3.1 38 3"/></g><g id="Mouth"><path id="Background-2" fill="#b71422" d="M45 43a9 9 0 0 1-2.9 4.7 7 7 0 0 1-4 1.9 7 7 0 0 1-4.1-1.9 9 9 0 0 1-2.9-4.7.7.7 0 0 1 .8-.8h12.4a.7.7 0 0 1 .8.8" data-name="Background"/><g id="Tongue"><path id="Background-3" fill="#ff6164" d="M34 47.8a7 7 0 0 0 4.1 1.9 7 7 0 0 0 4.1-2l1-1a7 7 0 0 0-4.9-2.3 6 6 0 0 0-5 2.8z" data-name="Background"/><path id="Outline-2" d="M34.2 47a5 5 0 0 1 4.1-2 6 6 0 0 1 4 1.6l.7-.8a7 7 0 0 0-4.7-1.9 6 6 0 0 0-4.9 2.4z" data-name="Outline"/></g><path id="Outline-3" d="M38 50.2a7 7 0 0 1-4.4-2 10 10 0 0 1-3-5 1 1 0 0 1 .2-1 1 1 0 0 1 1.1-.6h12.4a1 1 0 0 1 1 .5 1 1 0 0 1 .3 1 10 10 0 0 1-3 5 7 7 0 0 1-4.5 2m-6-7.4h-.3a8 8 0 0 0 2.7 4.5 6 6 0 0 0 3.7 1.7 6 6 0 0 0 3.6-1.7 8 8 0 0 0 2.8-4.4h-.2Z" data-name="Outline"/></g><g id="Face"><ellipse id="Right_Blush" cx="53.2" cy="40.2" fill="#febbd0" data-name="Right Blush" rx="5.8" ry="3.4"/><ellipse id="Left_Bluch" cx="22.9" cy="40.2" fill="#febbd0" data-name="Left Bluch" rx="5.8" ry="3.4"/><path id="Eyes" fill-rule="evenodd" d="M25.7 38.8a5.5 5.5 0 1 0-5.5-5.5 5.5 5.5 0 0 0 5.5 5.5m24.8 0a5.5 5.5 0 1 0-5.5-5.5 5.5 5.5 0 0 0 5.5 5.5"/><path id="Iris" fill="#fff" fill-rule="evenodd" d="M24 33.6a2 2 0 1 0-2-2 2 2 0 0 0 2 2m24.8 0a2 2 0 1 0-2-2 2 2 0 0 0 2 2"/></g></svg>