<svg xmlns="http://www.w3.org/2000/svg" viewBox="4.5 2.5 63 63"><defs><linearGradient id="cloudflare-pages-logo-gradient" x1="118.2%" x2="10.8%" y1="-2.4%" y2="101.6%"><stop offset="0%" stop-color="#fbb743"/><stop offset="100%" stop-color="#f28333"/><stop offset="100%" stop-color="#ea6b00"/></linearGradient></defs><path fill="#b7bbbd" d="M46 10h14l2 2v44l-2 2H40.8l1-1.5h17.6l1.1-1.1V12.6l-1.1-1.1H47.3l-1.5 7.4h-1.5l1.4-7.5zM12 58l-2-2V12l2-2h19.9l-1 1.5H12.6l-1.1 1.1v42.8l1.1 1.1h14.5l-.2 1.5zm3-5h8.5l-.3 1.5H14l-.5-.5v-9l1.5 3zm34 0 1.5 1.5H43l1-1.5z"/><path fill="url(#cloudflare-pages-logo-gradient)" d="M32.7 40H19l-1.7-3.1 23-34L44 4.4 39.4 28H53l1.7 3-22 34-3.7-1.3zM15.5 17a1.5 1.5 0 1 1 0-3 1.5 1.5 0 0 1 0 3m4 0a1.5 1.5 0 1 1 0-3 1.5 1.5 0 0 1 0 3m4 0a1.5 1.5 0 1 1 0-3 1.5 1.5 0 0 1 0 3"/></svg>