<svg xmlns="http://www.w3.org/2000/svg" width="184" height="188" fill="none" viewBox="30 30 124 128"><path fill="#f3b01c" d="M108 130a59 59 0 0 0 44.8-27.8c-4.5 40-48.1 65.2-83.8 49.7a18 18 0 0 1-8-6.9 55 55 0 0 1-7-43.1 58 58 0 0 0 54 28.1"/><path fill="#8d2676" d="M53.4 90.2a61 61 0 0 0 1.3 53.3 63.5 63.5 0 0 1-.3-98.7q4.3-3.4 9.8-3.7c14.7-.8 29.7 5 40.2 15.5a58 58 0 0 0-51 33.6"/><path fill="#ee342f" d="M114.6 61.9a59 59 0 0 0-46-25.5c35.7-16.2 79.5 10 84.3 48.8q.6 5.5-1.8 10.5c-6.6 13.5-19 24-33.4 27.9a60 60 0 0 0-3-61.7"/></svg>