<svg xmlns="http://www.w3.org/2000/svg" viewBox="0 0 1000 1000"><path fill="#639" d="M0 0h840a160 160 0 0 1 160 160v680a160 160 0 0 1-160 160H160A160 160 0 0 1 0 840z"/><path fill="#fff" d="M817 920q-49-1-75-28-25-29-27-82h70q0 47 33 47 17 0 23-10 7-11 7-33 0-19-9-30a73 73 0 0 0-29-22l-26-12q-35-16-50-39t-15-64q0-45 26-74 27-28 74-28 45 0 70 28 26 27 27 80h-67q0-17-7-33-6-12-22-12-30 0-30 36 1 17 7 28a65 65 0 0 0 26 17l25 11q38 18 55 43 17 27 17 69 0 53-27 80-28 28-76 28m-226 0q-48-1-74-28-26-29-27-82h70q0 47 33 47 16 0 23-10 6-11 7-33 0-19-9-30a73 73 0 0 0-30-22l-25-12q-35-16-51-39-15-23-15-64 0-45 27-74 27-28 74-28 45 0 70 28 26 27 26 80h-67q1-17-7-33-5-12-22-12-29 0-29 36 0 17 7 28a65 65 0 0 0 25 17l25 11q39 18 55 43 18 27 18 69 0 53-28 80-27 28-76 28m-235 0q-46 0-75-26-28-26-28-77V649q0-51 29-77 31-27 79-27 47 0 74 27 28 27 28 80v14h-74v-13q0-21-8-31a26 26 0 0 0-22-10q-18 0-25 12a79 79 0 0 0-7 37v146q0 46 32 47 15 0 23-11a52 52 0 0 0 7-30v-11h74v11q0 36-14 59a89 89 0 0 1-38 36 121 121 0 0 1-55 12"/></svg>