<svg xmlns="http://www.w3.org/2000/svg" xml:space="preserve" id="_x30_1" x="0" y="0" version="1.1" viewBox="0 0 963 961.4"><style>.st0{fill:#fff}</style><linearGradient id="SVGID_1_" x1="-1332.09" x2="-1762.01" y1="411.23" y2="689.59" gradientUnits="userSpaceOnUse"><stop offset=".08" stop-color="#69d3a7"/><stop offset="1" stop-color="#69d3a7" stop-opacity="0"/></linearGradient><linearGradient id="SVGID_00000027594368571832825320000012150300442423805353_" x1="-2010.84" x2="-2280.93" y1="-66.51" y2="506.32" gradientUnits="userSpaceOnUse"><stop offset="0" stop-color="#69d3a7"/><stop offset="1" stop-color="#69d3a7"/></linearGradient><linearGradient id="SVGID_00000183230330393599205210000012274534758368872091_" x1="-2332.74" x2="-1624.53" y1="628.3" y2="850.57" gradientUnits="userSpaceOnUse"><stop offset=".08" stop-color="#69d3a7"/><stop offset=".16" stop-color="#74d6ad"/><stop offset=".31" stop-color="#92dfbf"/><stop offset=".5" stop-color="#c2eddb"/><stop offset=".72" stop-color="#fff"/></linearGradient><path d="M340.4 382.8c38.4 0 69.6 20.5 85.6 56.1l1.2 2.8 64.4-21.9-1.3-3.3c-24.9-60.8-82.4-98.5-149.9-98.5-47.5 0-86.1 15.2-118 46.5-31.7 31.1-47.7 70.2-47.7 116.2 0 45.7 16.1 84.6 47.7 115.6 31.9 31.3 70.5 46.5 118 46.5 67.5 0 124.9-37.8 149.9-98.5l1.3-3.3-64.5-21.9-1.1 2.9c-14.4 35.1-46.4 56-85.6 56-26.7 0-49.3-9.3-67.1-27.7-18.1-18.6-27.2-42.1-27.2-69.6 0-27.7 8.9-50.7 27.2-70.2 17.9-18.4 40.4-27.7 67.1-27.7z" class="st0"/><linearGradient id="SVGID_00000046319717966458416970000015607462967221361851_" x1="992.99" x2="568.87" y1="483.7" y2="758.3" gradientUnits="userSpaceOnUse"><stop offset=".08" stop-color="#69d3a7"/><stop offset="1" stop-color="#69d3a7" stop-opacity="0"/></linearGradient><path fill="url(#SVGID_00000046319717966458416970000015607462967221361851_)" d="m620 934.4-19.2-63.3C774 818.5 890.4 661.6 890.4 480.7c0-49.9-8.9-98.7-26.5-144.9l61.8-23.5a471.1 471.1 0 0 1 30.9 168.5c-.1 210.1-135.3 392.4-336.6 453.6z"/><path fill="#69d3a7" d="M872.5 361.1c-52.9-172.6-210-288.5-391-288.5-24.6 0-49.2 2.2-73.2 6.5L396.6 14c27.8-5 56.4-7.6 84.9-7.6 210.2 0 392.7 134.7 454.2 335.2l-63.2 19.5z"/><path d="M743.7 324 652 556.4 559.6 324H484l129.6 317.2-94.4 229 66.1 13.2L815.1 324z" class="st0"/><linearGradient id="SVGID_00000100373257584267226060000002155254387837733269_" x1="533.24" x2="86.91" y1="903.27" y2="46.62" gradientUnits="userSpaceOnUse"><stop offset=".06" stop-color="#fff"/><stop offset=".14" stop-color="#def5ec"/><stop offset=".24" stop-color="#baebd7"/><stop offset=".34" stop-color="#9de2c5"/><stop offset=".45" stop-color="#86dbb8"/><stop offset=".57" stop-color="#76d7ae"/><stop offset=".71" stop-color="#6cd4a9"/><stop offset=".88" stop-color="#69d3a7"/></linearGradient><path fill="url(#SVGID_00000100373257584267226060000002155254387837733269_)" d="m531.1 841.4-13.9 33.7c-3.2 7.7-10.5 13-18.7 13.3-5.7.2-11.3.4-17.1.4-170.8 0-324-107.6-383.1-265.3-.9-2.4-1.8-4.8-2.6-7.2-.2-.6-.4-1.3-.7-1.9-.7-2.2-1.5-4.3-2.2-6.5-.3-.8-.5-1.6-.8-2.5-.6-2-1.3-3.9-1.9-5.9l-.9-3a406.58 406.58 0 0 1-16.7-115.9c0-210.8 158.3-385.4 368.1-406.1l-6.5-65.8a472.74 472.74 0 0 0-427.6 472c0 44.6 6.2 88.5 18.3 130.9v.1c.8 2.9 1.7 5.7 2.6 8.6.1.4.2.8.4 1.2.8 2.7 1.7 5.4 2.6 8.1.2.5.3.9.5 1.4.9 2.7 1.8 5.4 2.8 8.1.1.4.3.7.4 1.1.9 2.6 1.9 5.2 2.8 7.7 69 182.5 246.5 306.9 444.4 307h.1c6.6 0 13.2-.1 19.8-.4 33.9-1.4 64.2-22.7 77.2-54.2l18.8-45.7-66.1-13.2z"/></svg>