<svg xmlns="http://www.w3.org/2000/svg" viewBox="0 0 800.5 907.8"><path fill="#fff" d="M303.4 238.6c31.3-21.4 71.7-13 65-6.5-13 12.3 4.2 8.6 6 31.3 1.4 16.7-4 25.9-8.7 31.1a199 199 0 0 0-58.3 17.2 53 53 0 0 1-5.8-4.3c-22.1-19.2-21.4-53 1.8-68.8m187.3 132.1c5.7-4.4 31.5-12.7 55.5-15.5 12.5-1.5 30.5-2.4 34.3-.2 7.6 4.2 7.6 17.1 2.4 29.1-7.6 17.4-18.3 36.6-30.4 38.2-19.8 2.6-38.5-8-59.8-24-7.6-5.7-12.3-19.6-2-27.6m36-169.4c29.2 13.6 25.4 39.4 26.2 54.6q.4 6.4-.2 9.3c-4-2.2-10.4-3.8-20.6-3.4q-4.4.3-8.6 1c-10.8-5.8-17.2-17.1-23-29.1l-1.4-3-.6-1.4-.2-.6c-3.2-10.2-1-12.3.3-15.4 1.4-3.3 6.7-6-1-8.6q-1.1-.4-2.5-.6c5.1-6.4 20.6-8 31.6-2.8m-159 309a437 437 0 0 1-78.3-65.3c-2.4-1.8-2-9.7-2-9.7 12.8 10 66.1 48 122.4 65.4 20 6.1 50.4 8.4 76.8-6.6a197 197 0 0 0 59.1-52l2.7 4.6a118 118 0 0 1-10.2 24c6.1 3.5 10.7 4.5 17.5 6.4l46.7-7.3c16.7-27 28.7-70.7 16-112.2-7.4-23.8-45.4-71.2-48.2-73.8-9.5-9.2 1.6-44.7-17.3-83.4-20-41-72.2-83.7-94.9-102.3 6.7 4.9 47.8 21.5 67 44.6 1.8-2.4 2.5-14.8 4.2-18-16.5-21.5-17.8-59.9-17.8-70.2 0-18.8-9.5-40-9.5-40s16.5 13 20.7 35.4a145 145 0 0 0 30 65.3c26.8 33.4 51 50.6 63.3 38.2 14.6-14.8-14.9-81.2-52.6-118.2-44-43.3-55.6-37.7-81.4-28.5-20.6 7.3-31.7 65.9-85.5 64.7-9-1-32.5-1.6-44-1.5 6-8.5 11.1-15 11.1-15s-18 7.3-33.3 16.5l-1.2-1.8c5.2-11 10.7-17.8 10.7-17.8s-14.4 8.6-27.5 19c2.4-13 11.4-21.3 11.4-21.3s-18.2 3.3-41.3 28.8c-26.4 7.2-32.7 12-53.7 21.2-34.1-7.4-50.2-19.4-65.5-41.5-11.7-17-32.5-19.5-53.7-10.8-31 12.8-70.2 30.4-70.2 30.4s12.8-.6 26.1 0C47.1 84.6 29.6 94 29.6 94s8.5-.3 19-.1c-7.2 6-11.2 9-18.2 13.5-16.6 12.1-30.1 26-30.1 26s11.3-5 21.4-8c-7 16.3-21.2 28.3-18.6 48.2 2.5 18.2 24.9 55.7 53.7 78.7 2.5 2 41.8 38.4 71.5 23.4s41.4-28.2 46.3-48.6c5.7-23.5 2.5-41.2-9.8-92-4-16.9-14.6-51.4-19.6-68l1-.8C156 86.8 181 140.8 191 177.1c15.6 56.6 10.7 85.3 3.6 95.8-21.6 31.7-76.9 35.9-102 18.3-3.9 61 9.7 87.8 14.4 101.3-2.3 15.5 7.7 44.3 7.7 44.3s1.2-13 5.8-20c1.2 15.4 9 33.7 9 33.7s-.5-11.3 3-21c5 8.4 8.7 10.4 13.4 16.7 4.7 16.5 14.1 28.5 14.1 28.5s-1.5-8.8-.7-18c23 22.1 27 54.4 29.3 79.3C195 604.2 81 658.5 58.8 701.2 42 726.5 32 766.5 60.4 790.1c68.6 57 42.2 72.7 76.6 97.7 47 34.3 106 19 126-9 28-38.9 20.8-75.6 10.5-110-8.2-26.8-30.2-71.4-57.5-88.7-27.8-17.6-55-21-77.9-18.6l2.2-2.4c33-6.6 67.5-3 92.5 13.1 28.3 18.3 54.2 49.5 67.8 97.4 15.4-2.2 17.5-3.2 31.6-5.2l-31.7-246.7zm18.2 309.2-3.6-34.2 71.3-108.7 81 23.6L604 584l83.4 55L751 506l22.5 242.2zm388.4-363-254.7 46.2a129 129 0 0 1-29.5 26.1c-32.1 16.2-53.9 11.5-72.7 6.6-12-3-19-4.7-29-9.2l-62.2 8.5 37.7 314.9 436.4-78.7z"/></svg>