<svg xmlns="http://www.w3.org/2000/svg" width="256" height="256"><path fill="#fefefe" d="M106.3 255c-50-9-90.1-47.6-101.2-97.2a173 173 0 0 1-.4-56.1A126 126 0 0 1 38 39.2a127 127 0 0 1 63-35.8c7.2-1.9 11.2-2.2 28.2-2.2s21 .3 28.3 2.2a128 128 0 0 1 96.4 98.3c2 8.8 2.3 13.3 2.3 27.5 0 14.7-.4 18.5-2.6 28a129 129 0 0 1-67.1 86.4 153 153 0 0 1-35.2 11.5c-11 2-34 1.9-44.8 0z"/><path fill="#fcfbfb" d="M119.2 227c-22.5-5.6-42.5-26.5-62-64.6-28-54.4-31.5-104-8.7-119 7.9-4.9 19.3-4.7 29.4.4 5.6 2.9 7.2 4.7 10.4 11.7 4 8.7 5.5 18.6 6.1 39.6l.7 19.3 3.1-7.3c1.7-4 5.3-10.9 7.8-15.4 2.6-4.4 4.6-9.3 4.6-10.8 0-1.4-1-5.3-2.4-8.6a22 22 0 0 1-1.9-14.9c.6-3.1.6-3.1 7.2-3.1h6.6l4-5.4c4.7-6 13.6-13.4 21.4-17.4 4.5-2.3 6.4-2.7 13.7-2.7 7.5 0 9 .3 13.3 2.9 2.6 1.5 4.5 3 4.3 3.3s-3-.3-6.2-1.2a32 32 0 0 0-23.8 2.5c-19 9.4-38.4 45-30.9 56.6q1.6 2.4 7.1 4c5.9 1.7 8.7 1.3 3.8-.6-10.2-4-8.1-13.2 6.8-30.1l8.6-9.6-.6-5.5c-.5-5-.3-5.7 1.7-6.8 2.7-1.5 7.3-.6 10.6 2 3.1 2.5 12.9 2.7 21.1.5 3-.8 8.2-1.4 11.6-1.5 5.8 0 6.2.2 6.8 2.5.4 1.4.4 3.2 0 4-.2.8.5 3.6 1.6 6.2a59 59 0 0 1 1.9 27.3c-.6 3-3 9-5 13.6-5.5 11.2-5.7 13-2.6 20.3 5.3 12.7 9.2 37 8.2 51.1a204 204 0 0 1-3.2 20.5c-2.7 13.7-2.5 18.5 1 21.5.8.7 1.5 2.7 1.5 4.5q-.2 5.7-7.8 8.4a40 40 0 0 1-20-.4q-8.8-3.2-14.8.7c-3 2-5 2.3-16.4 2.5q-13 .2-18.8-1.2zm-15-35.1c-8.9-26.1-6.1-55.4 8-86l4.2-9-4.5-4-4 8.6c-16.2 35.2-18.7 66.2-7 89.3 3 6.1 5.8 10.9 6.3 10.9.1 0-1.2-4.4-3-9.7zm75.8-87.5 2.1-5.3-.4 4.4c-.3 2.5-.1 4 .4 3.5.8-.8 5.9-13.7 5.9-15 0-.3-1.3.6-3 2-3 2.6-8.6 4.6-12.7 4.6-2 0-2.2.3-1.6 3.8 1 6.7 1.4 7.2 4.4 7.2 2.5 0 3-.6 5-5.2z"/><path fill="#fbfbfb" d="M119.2 227c-22.5-5.6-42.5-26.5-62-64.6-21.4-41.7-28.7-80.3-20-104 6.4-17.1 23.4-23 40.8-14.2 5.6 2.8 7.2 4.6 10.4 11.7 4 8.6 5.5 18.6 6.1 39.6l.6 19.3 3.2-7.3c1.7-4 5.2-11 7.8-15.4s4.6-9.3 4.6-10.8-1.1-5.4-2.5-8.6a22 22 0 0 1-1.8-15c.6-3 .6-3 7.2-3h6.5l4.1-5.4c4.6-6 13.6-13.4 21.4-17.4 4.4-2.3 6.4-2.7 13.6-2.7 7.6 0 9 .3 13.3 2.8 2.7 1.6 4.6 3 4.4 3.3s-3-.3-6.3-1.2a32 32 0 0 0-23.8 2.5c-19 9.5-38.3 45-30.8 56.6q1.6 2.5 7 4c6 1.8 8.7 1.3 3.9-.6-10.2-3.9-8.1-13.2 6.8-30l8.5-9.7-.5-5.5c-.5-5-.4-5.6 1.6-6.7 2.8-1.5 7.4-.7 10.7 2 3 2.5 12.9 2.7 21 .5a55 55 0 0 1 11.7-1.5c5.8 0 6.2.2 6.8 2.5.3 1.4.4 3.1 0 4-.3.8.4 3.6 1.6 6.2a59 59 0 0 1 1.9 27.3c-.7 3-3 9-5.1 13.6-5.4 11.2-5.6 12.9-2.5 20.3 5.3 12.7 9.2 37 8.2 51a204 204 0 0 1-3.2 20.6c-2.8 13.7-2.5 18.5 1 21.5.8.7 1.5 2.6 1.5 4.4q-.2 5.7-7.8 8.4a41 41 0 0 1-20-.3q-8.9-3.3-14.9.7c-3 2-5 2.2-16.3 2.4q-13 .3-18.8-1.2zm-15-35.1c-8.9-26.1-6.1-55.4 8-86l4.2-9-4.5-4-4 8.6c-16.2 35.2-18.7 66.2-7 89.3 3 6.1 5.8 10.9 6.3 10.9.1 0-1.2-4.4-3-9.7zm75.8-87.5 2.1-5.3-.4 4.4c-.3 2.5-.1 4 .4 3.5.8-.8 5.9-13.7 5.9-15 0-.3-1.3.6-3 2-3 2.6-8.6 4.6-12.7 4.6-2 0-2.2.3-1.6 3.8 1 6.7 1.4 7.2 4.4 7.2 2.5 0 3-.6 5-5.2z"/><path fill="#a08470" d="M119.2 227A79 79 0 0 1 82 201.6 259 259 0 0 1 38.1 114a97 97 0 0 1-3.7-28.7c-.4-15-.2-17.4 1.6-23.6a29 29 0 0 1 10.9-17c8-6 19.9-6.4 31-.8 5.6 2.9 7.2 4.7 10.4 11.7 4 8.7 5.5 18.6 6.2 39.6l.6 19.3 3.1-7.3a249 249 0 0 1 7.8-15.4c2.6-4.4 4.7-9.3 4.7-10.8 0-1.4-1.1-5.3-2.5-8.6a22 22 0 0 1-1.9-14.9c.6-3.1.6-3.1 7.2-3.1h6.6l4-5.4c4.7-6 13.7-13.4 21.4-17.4 4.5-2.3 6.4-2.7 13.7-2.7 7.5 0 9 .3 13.3 2.9 2.6 1.5 4.6 3 4.3 3.3s-3-.3-6.2-1.2a32 32 0 0 0-23.8 2.5c-19 9.4-38.4 45-30.9 56.6q1.7 2.4 7.1 4c5.9 1.7 8.7 1.3 3.8-.6-10.2-4-8-13.2 6.9-30.1l8.5-9.6-.6-5.6c-.5-5-.3-5.6 1.7-6.7 2.8-1.5 7.3-.6 10.6 2 3.1 2.5 12.9 2.7 21.1.5a55 55 0 0 1 11.6-1.5c5.8 0 6.3.2 6.8 2.5.4 1.4.4 3.2.1 4s.4 3.6 1.5 6.2a59 59 0 0 1 2 27.3c-.7 3-3 9-5.2 13.6-5.4 11.2-5.6 13-2.5 20.3 5.4 12.7 9.2 37 8.2 51.1a204 204 0 0 1-3.1 20.5c-2.8 13.7-2.6 18.5 1 21.5.8.7 1.4 2.7 1.4 4.4q0 5.8-7.8 8.5a40 40 0 0 1-20-.4q-8.7-3.2-14.8.7c-3 2-5 2.3-16.4 2.5q-13 .2-18.7-1.2zm-15-35.1c-8.9-26.1-6.1-55.4 8-86l4.2-9-4.5-4-4 8.6c-16.2 35.2-18.7 66.2-7 89.3 3 6.1 5.8 10.9 6.3 10.9.1 0-1.2-4.4-3-9.7zm75.8-87.5 2.1-5.3-.4 4.4c-.3 2.5-.1 4 .4 3.5.8-.8 5.9-13.7 5.9-15 0-.3-1.3.6-3 2-3 2.6-8.6 4.6-12.7 4.6-2 0-2.2.3-1.6 3.8 1 6.7 1.4 7.2 4.4 7.2 2.5 0 3-.6 5-5.2z"/><path fill="#45352f" d="M119.2 227c-22.2-6-42.5-28-61.7-66.4-16.1-32.4-23-58.2-21.9-82 .9-19.3 6.3-30 17.8-35a31 31 0 0 1 23 1c8.8 3.8 12 8.2 15.6 21.8 1.8 6.4 2.2 11.7 2.6 31.2l.5 23.5 1.7-5c1.9-5.5 8.8-19.8 12.4-25.4q5-7.8.9-16.6a25 25 0 0 1-2.3-10.2c0-8 .2-8.3 7.7-8.4h6.6l3.8-5c4.5-6 13.2-13 21-17 5-2.5 7-3 13.4-2.9 6.1 0 8.3.5 12 2.6 2.5 1.3 3.6 2.2 2.5 1.8-14.1-4.4-26.5-1.1-38.5 10.4-14.9 14.2-25 38.4-20 48q2.7 5.4-1.3 1l-2-2-2 3.8A241 241 0 0 0 97.4 134a82 82 0 0 0-2.7 25.5c0 13 .3 15.3 2.6 22.5 3.2 9.6 11.3 23.3 15.2 25.7.6.3 0-3.5-1.4-8.6a87 87 0 0 1-1.2-36l1.3-4 3 5.4c5.3 9.2 20.4 22.8 27.4 24.6q7.7 1.9-.4-20.2a69 69 0 0 1-5.7-29.5 50 50 0 0 1 8.2-29.6c4.6-8.4 5-12 2-21.5-1-3.5-2-6.9-2-7.6s2.4.5 5.2 2.6a57 57 0 0 0 22.5 10.8c4 .5 5 .2 7.7-2a29 29 0 0 0 7.3-16.7c0-1.6.4-3 1-3 1.2 0 2.2 6.2 1.8 11l-.4 4 2.7-2.7a26 26 0 0 0 4.8-7.7l2-5-.3 8.5a37 37 0 0 1-5 18.6 46 46 0 0 0-4.7 13.6c0 2 1.4 7 3 11 7 17.7 8.9 44.8 4.5 65.2-3.3 15.4-3.3 20.5.1 24.6 2.2 2.5 2.5 3.6 1.8 5.7-1.4 3.9-5.3 6.2-12.6 7.5-6 1-7.3 1-13.4-1-8.6-2.9-10.6-2.8-16.3.2-4.3 2.4-5.6 2.5-17.8 2.4a88 88 0 0 1-18-1.4zm59.1-117c.9-.6 2.1-2 2.8-3.2q1.4-3 .5.3c-.9 3.3 1.2 2.7 3.1-1a50 50 0 0 0 4.9-14.6c-.3-.3-1.8.6-3.3 2a16 16 0 0 1-11.8 4.8H171l.5 5c.7 7.1 3.3 9.7 6.9 6.8zm-1.6-45c-10-4.8-12.4-11.4-5.5-14.8a49 49 0 0 1 20.2-3.4c2.3.6 2.7 1.1 2.7 4.7 0 6.8-6.2 16-10.8 15.9-1 0-3.9-1.1-6.6-2.4m-33.8-6c1.1-1.8 1.2-3 .3-6.4-2-7.8 2.7-9.5 12.5-4.5l5.6 2.8-5.3 1.7c-2.9.9-7 3.2-9.3 5.2q-7 6-3.8 1.2"/></svg>