<svg xmlns="http://www.w3.org/2000/svg" width="800" height="800" viewBox="0 0 32 32"><path fill="#0366d6" d="m4 9.5 10.79-7.13a2.2 2.2 0 0 1 2.43 0L28 9.5a2.2 2.2 0 0 1 1 1.87v9.25a2.2 2.2 0 0 1-1 1.88l-10.78 7.13a2.2 2.2 0 0 1-2.43 0L4 22.5a2.2 2.2 0 0 1-1-1.87v-9.25A2.2 2.2 0 0 1 4 9.5"/><path fill="#fff" d="M16.87 11.63v-.88h-1.45a.3.3 0 0 1-.29-.3V8.43a.3.3 0 0 1 .3-.3h2.01a.3.3 0 0 1 .3.3v3.2h4.33a.87.87 0 0 1 .86.88V16h.58a.3.3 0 0 1 .29.3v2.9a.3.3 0 0 1-.29.3h-.58v1.75a.87.87 0 0 1-.86.88H9.93a.87.87 0 0 1-.86-.88V19.5h-.58a.3.3 0 0 1-.29-.3v-2.9a.3.3 0 0 1 .29-.3h.58v-3.5a.87.87 0 0 1 .86-.87Z"/><path fill="#0366d6" d="M18.35 18.52a.35.35 0 0 0 .5 0l1.82-1.83a.36.36 0 0 0 0-.5l-.37-.38a.35.35 0 0 0-.5 0l-1.2 1.21-.47-.48a.35.35 0 0 0-.5 0l-.38.38a.35.35 0 0 0 0 .5Zm-5.77 0a.35.35 0 0 0 .49 0l1.82-1.83a.36.36 0 0 0 0-.5l-.38-.38a.35.35 0 0 0-.5 0l-1.2 1.21-.47-.48a.35.35 0 0 0-.5 0l-.36.38a.36.36 0 0 0 0 .5Z"/></svg>