<svg xmlns="http://www.w3.org/2000/svg" width="68" height="100" viewBox="0 0 39 39"><path fill="#827f82" d="M2.66-8.84q-.22 0-.32.12-.1.1-.11.32v19.7q0 .23.11.32.1.12.32.12h5.16c2 0 3.22-.45 3.96-1.42 1.1-1.3 1.13-3.42 1.13-6.66V-.76c0-3.24-.04-5.35-1.13-6.66-.74-.96-1.96-1.42-3.96-1.42zM5.5-6.43h1.82c.8 0 1.28.13 1.65.58.57.68.62 2.07.62 4.87v4.87c0 2.8-.05 4.18-.62 4.87-.37.44-.85.58-1.65.58H5.5zM36.82-8.4q0-.23-.12-.32-.09-.11-.31-.12h-2.41q-.23 0-.32.12-.11.1-.12.32V6.15c0 1.52-.11 2.42-.6 2.96q-.5.55-1.48.55-.89.01-1.4-.55c-.47-.51-.61-1.39-.61-2.96V-8.4q0-.23-.12-.32-.09-.11-.31-.12H26.6q-.23 0-.32.12-.1.1-.11.32V6.15c0 2.12.28 3.45 1.12 4.38.88.96 2.2 1.47 4.2 1.47 2.03 0 3.34-.54 4.14-1.48.94-1.09 1.18-2.4 1.18-4.37zM21.26 11.3q0 .23-.12.32-.1.12-.31.12h-2.64q-.22 0-.31-.12-.12-.09-.12-.31V-6.23h-3.1a.4.4 0 0 1-.31-.12.4.4 0 0 1-.12-.31V-8.4q0-.23.12-.32a.4.4 0 0 1 .31-.12h9.7q.22 0 .32.12.1.1.1.32v1.74q0 .22-.1.31a.4.4 0 0 1-.32.12h-3.1zm0 0"/><path fill="#bf1e30" d="m39 22.04-8.27 4.34c-10.7-4.17-11.6-4.17-22.3 0L.15 22.04l8.26-4.34c10.7 4.16 11.61 4.16 22.31 0zm0 10.72-8.27 4.34c-10.7-4.17-11.6-4.17-22.3 0L.15 32.76l8.26-4.34c10.7 4.17 11.61 4.17 22.31 0zm0 10.72-8.27 4.34c-10.7-4.16-11.6-4.16-22.3 0L.15 43.48l8.26-4.33c10.7 4.16 11.61 4.16 22.31 0z"/></svg>