<svg xmlns="http://www.w3.org/2000/svg" viewBox="0 0 284 284"><path fill="#87dd08" d="M79 27q-12 3-18 15c-2 4-3 6-3 26s0 21-2 22q-1 2-22-4l-23-5q-15 0-6 26 7 24 27 38a75 75 0 0 0 24 13q3 0 5 8c11 38 44 62 82 62q24 0 44-12c17-10 32-29 37-48 2-8 3-9 8-11 7-2 19-9 25-15 15-13 25-33 25-49q1-6-2-9c-4-3-8-3-29 2l-20 5-2-1-1-20q0-20-2-24-8-20-29-19l-17 5c-33 13-40 13-72 0-15-5-22-7-29-5M51 217c-3 1-6 8-6 11q-1 6 10 16c13 12 18 14 25 11 7-2 10-11 7-18-2-3-11-12-19-18q-6-4-10-4zm170 1c-4 2-19 16-21 20q-3 5-1 12 5 7 12 7 5 1 17-10c10-10 11-11 12-15 3-11-9-20-19-14"/></svg>