<svg xmlns="http://www.w3.org/2000/svg" viewBox="27 27 74 74"><path fill="#fff" d="M55.3 36.3h.4q1.6.1 1.5 2.3v41.8q.1 2.9-1.6 3l-4.8-.1q-1.7 0-1.6-3V45.5l-2.1.5q-1.5 0-1.5-2.2v-3q0-1.9 1.4-2.2zm16 36.1.1 3 .6 1.3.6.6.8.1h2.2q1.6.1 1.7 2v1.9q0 1.9-1.8 2h-3.2l-2.3-.1q-1-.3-2.2-1a6 6 0 0 1-2-1.9 11 11 0 0 1-1-3.2q-.6-2.1-.5-4.8v-16h-1.5q-1.6-.2-1.6-2.4v-1.7q0-2.2 1.6-2.3h1.5v-.1l.6-12.3q0-2.4 1.6-2.5h3.1q1.7.1 1.6 2.5v12.3h3.6q1.6.1 1.6 2.4V54q0 2.2-1.6 2.3h-3.6v16.2zm9.4 15.7q-.1-3.1 1.5-3.2c.2 0 .4 0 1.4.4l1.1.3.2-.1.4-.7q.4-.9.4-3l-.6-3.3L79 52.7v-.9q0-1.9 1.2-2H84q.8 0 1.3.6t.6 1.6l3.4 18 2.6-17.8q.1-1.1.6-1.7t1.3-.6h2.6q1.5.1 1.4 2l-.1.8L92 82.2q-.7 3.8-1.5 5.7a7 7 0 0 1-2 3q-1.3.9-3.1.9h-.3q-3 0-4.1-1.7-.4-.6-.4-2zM31.3 38.8l8.2-2.1h.5q1.4 0 1.4 2.2v41.9q.1 2.8-1.6 2.9h-4.7q-1.7 0-1.6-3v-35l-2 .6q-1.7-.1-1.6-2.2v-3q0-1.8 1.4-2.3"/></svg>