<svg xmlns="http://www.w3.org/2000/svg" viewBox="0 -19.5 324 324"><path fill="#8080f2" d="m98.8 104.3 60.7-35a5 5 0 0 1 5 0l60.7 35a5 5 0 0 1 2.5 4.3v70.1a5 5 0 0 1-2.5 4.3l-60.7 35a5 5 0 0 1-5 0l-60.7-35a5 5 0 0 1-2.5-4.3v-70.1a5 5 0 0 1 2.5-4.3"/><path fill="#4b32c3" d="M320 136.3 247.4 9.9A15 15 0 0 0 234.6 2H89.4C84 2 79.2 5.4 76.6 10L4 136a15 15 0 0 0 0 14.9l72.6 125.3c2.6 4.6 7.5 6.9 12.8 6.9h145.2c5.3 0 10.2-2.3 12.8-6.8L320 150.8a14 14 0 0 0 0-14.5M260 197q-.2 3-2.7 4.5L164.7 255a5 5 0 0 1-5.3 0L67 201.5a5 5 0 0 1-3-4.5V90.3q.1-3 2.7-4.5l92.5-53.4a5 5 0 0 1 5.3 0L257 85.8q2.7 1.6 2.8 4.5z"/></svg>