<svg xmlns="http://www.w3.org/2000/svg" viewBox="0 0 32 32"><path fill="#fff" d="M32 24.8c-1.16.3-1.88 0-2.53-.96l-4.6-6.36-.66-.88-5.36 7.26c-.62.87-1.26 1.25-2.4.94l6.87-9.22-6.4-8.33c1.1-.21 1.86-.1 2.54.88l4.76 6.44 4.8-6.4c.62-.88 1.28-1.2 2.38-.89l-2.48 3.3-3.36 4.37c-.4.5-.34.84.02 1.32zM0 15.43l.57-2.77C2.1 7.2 8.37 4.92 12.69 8.3c2.53 1.99 3.16 4.8 3.03 7.95H1.48c-.21 5.67 3.87 9.1 9.07 7.35 1.83-.62 2.9-2.05 3.44-3.83.27-.9.72-1.04 1.57-.78-.43 2.23-1.4 4.1-3.45 5.27C9.04 26 4.67 25.44 2.37 23 1 21.6.43 19.81.18 17.9q-.07-.48-.18-.92zm1.5-.38h12.88c-.09-4.1-2.64-7.02-6.13-7.04-3.83-.03-6.58 2.81-6.74 7.04"/></svg>