<svg xmlns="http://www.w3.org/2000/svg" fill="none" viewBox="0 0 54 80"><g clip-path="url(#a)"><path fill="#0acf83" d="M13.3 80c7.4 0 13.4-6 13.4-13.3V53.3H13.3a13.3 13.3 0 0 0 0 26.7"/><path fill="#a259ff" d="M0 40c0-7.4 6-13.3 13.3-13.3h13.4v26.6H13.3C6 53.3 0 47.3 0 40"/><path fill="#f24e1e" d="M0 13.3C0 6 6 0 13.3 0h13.4v26.7H13.3C6 26.7 0 20.7 0 13.3"/><path fill="#ff7262" d="M26.7 0H40a13.3 13.3 0 0 1 0 26.7H26.7z"/><path fill="#1abcfe" d="M53.3 40a13.3 13.3 0 1 1-26.6 0 13.3 13.3 0 0 1 26.6 0"/></g></svg>