<svg xmlns="http://www.w3.org/2000/svg" viewBox="0 -3 34 34"><path fill="#ea4335" d="M21.85 7.41h1l2.85-2.85.14-1.21A12.8 12.8 0 0 0 5 9.6a1.6 1.6 0 0 1 1-.06l5.7-.94s.29-.48.44-.45a7.1 7.1 0 0 1 9.73-.74Z"/><path fill="#4285f4" d="M29.76 9.6a13 13 0 0 0-3.87-6.24l-4 4A7.1 7.1 0 0 1 24.5 13v.71a3.56 3.56 0 1 1 0 7.12h-7.12l-.71.72v4.27l.71.71h7.12A9.26 9.26 0 0 0 29.76 9.6"/><path fill="#34a853" d="M10.25 26.49h7.12v-5.7h-7.12a4 4 0 0 1-1.47-.32l-1 .31-2.87 2.85-.25 1a9.2 9.2 0 0 0 5.59 1.86"/><path fill="#fbbc05" d="M10.25 8a9.26 9.26 0 0 0-5.59 16.6l4.13-4.13a3.56 3.56 0 1 1 4.71-4.71l4.13-4.13A9.3 9.3 0 0 0 10.25 8"/></svg>