<svg xmlns="http://www.w3.org/2000/svg" viewBox="296 296 128 128"><path fill="#d7bff2" d="M405.3 297h-90.6c-6.3 0-11.3 5.1-11.3 11.4v103.2c0 6.3 5 11.3 11.3 11.3h90.6c6.3 0 11.3-5 11.3-11.3V308.4c0-6.3-5-11.3-11.3-11.3m5 114.6a5 5 0 0 1-5 5h-90.6a5 5 0 0 1-5-5V308.4a5 5 0 0 1 5-5h90.6a5 5 0 0 1 5 5z"/><path fill="#d7bff2" d="m331.7 404.1 14.1-12.6-14.1-12.6zm51.2-51.1a20 20 0 0 0-15-5.6c-8.6 0-17.3 2.2-23.6 4.3v-35.8h-12.6v54.6l8.9-4c.1 0 14.5-6.5 27.3-6.5 6.4 0 7.8 3.5 7.8 6.5V404h12.6v-37.8c0-.8 0-7.8-5.5-13.3Zm-16.6-16.6h12.6a37 37 0 0 0 9.4-20.5h-12.6q-2 10.8-9.4 20.5"/></svg>