<svg xmlns="http://www.w3.org/2000/svg" xml:space="preserve" viewBox="0 0 70 70"><linearGradient id="intellij_1" x1=".79" x2="33.32" y1="40.09" y2="40.09" gradientUnits="userSpaceOnUse"><stop offset=".26" stop-color="#f97a12"/><stop offset=".46" stop-color="#b07b58"/><stop offset=".72" stop-color="#577bae"/><stop offset=".91" stop-color="#1e7ce5"/><stop offset="1" stop-color="#087cfa"/></linearGradient><path fill="url(#intellij_1)" d="M17.7 54.6.8 41.2l8.4-15.6L33.3 35z"/><linearGradient id="intellij_2" x1="25.77" x2="79.42" y1="24.88" y2="54.57" gradientUnits="userSpaceOnUse"><stop offset="0" stop-color="#f97a12"/><stop offset=".07" stop-color="#cb7a3e"/><stop offset=".15" stop-color="#9e7b6a"/><stop offset=".24" stop-color="#757b91"/><stop offset=".33" stop-color="#537bb1"/><stop offset=".43" stop-color="#387ccc"/><stop offset=".54" stop-color="#237ce0"/><stop offset=".66" stop-color="#147cef"/><stop offset=".79" stop-color="#0b7cf7"/><stop offset="1" stop-color="#087cfa"/></linearGradient><path fill="url(#intellij_2)" d="m70 18.7-1.3 40.5L41.8 70 25.6 59.6 49.3 35 38.9 12.3l9.3-11.2z"/><linearGradient id="intellij_3" x1="63.23" x2="48.29" y1="42.92" y2="-1.72" gradientUnits="userSpaceOnUse"><stop offset="0" stop-color="#fe315d"/><stop offset=".08" stop-color="#cb417e"/><stop offset=".16" stop-color="#9e4e9b"/><stop offset=".25" stop-color="#755bb4"/><stop offset=".34" stop-color="#5365ca"/><stop offset=".44" stop-color="#386ddb"/><stop offset=".54" stop-color="#2374e9"/><stop offset=".66" stop-color="#1478f3"/><stop offset=".79" stop-color="#0b7bf8"/><stop offset="1" stop-color="#087cfa"/></linearGradient><path fill="url(#intellij_3)" d="M70 18.7 48.7 43.9l-9.8-31.6 9.3-11.2z"/><linearGradient id="intellij_4" x1="10.72" x2="55.52" y1="16.47" y2="90.58" gradientUnits="userSpaceOnUse"><stop offset="0" stop-color="#fe315d"/><stop offset=".04" stop-color="#f63462"/><stop offset=".1" stop-color="#df3a71"/><stop offset=".17" stop-color="#c24383"/><stop offset=".29" stop-color="#ad4a91"/><stop offset=".55" stop-color="#755bb4"/><stop offset=".92" stop-color="#1d76ed"/><stop offset="1" stop-color="#087cfa"/></linearGradient><path fill="url(#intellij_4)" d="M33.7 58.1 5.6 68.3l4.5-15.8L16 33.1 0 27.7 10.1 0l22 2.7 21.6 24.7z"/><path d="M13.7 13.5h43.2v43.2H13.7z"/><path fill="#fff" d="M17.7 48.6h16.2v2.7H17.7zm11.7-26.2v-3.3h-9v3.3H23v11.3h-2.6V37h9v-3.3h-2.5V22.4zM38 37.3c-1.4 0-2.6-.3-3.5-.8s-1.7-1.2-2.3-1.9l2.5-2.8c.5.6 1 1 1.5 1.3s1.1.5 1.7.5c.7 0 1.3-.2 1.8-.7.4-.5.6-1.2.6-2.3V19.1h4v11.7c0 1.1-.1 2-.4 2.8a5.3 5.3 0 0 1-3.3 3.2c-.8.3-1.6.5-2.6.5"/></svg>