<svg xmlns="http://www.w3.org/2000/svg" width="1024" height="1024" fill="none" viewBox="100 100 824 824"><g filter="url(#iterm_filter0_d)"><rect width="824" height="824" x="100" y="100" fill="url(#iterm_0)" rx="179"/></g><rect width="780.42" height="780.42" x="121.79" y="121.79" fill="#000" rx="156"/><rect width="657.62" height="657.62" x="183.19" y="183.19" fill="#202a2f" rx="94"/><path fill="#0ee827" fill-opacity=".35" d="M367.4 226.77h89.13v178.27H367.4z"/><path fill="#0ee827" d="M274.47 374.62a96 96 0 0 1-13.11-1.98 147 147 0 0 1-10.92-3.36q-4.8-1.77-8.52-3.36-3.5-1.77-5.25-2.77l9.4-17.4a53 53 0 0 0 5.24 2.77 232 232 0 0 0 8.3 3.76q4.8 1.78 9.83 3.16 5.02 1.4 9.4 1.39 21.84 0 21.84-16.41 0-3.96-1.53-6.53a11 11 0 0 0-4.15-4.35 24 24 0 0 0-6.55-3.36q-3.72-1.59-8.52-3.17a171 171 0 0 1-16.39-6.52q-6.99-3.56-12.01-7.91-5.03-4.35-7.65-9.89a29 29 0 0 1-2.62-12.65q0-5.54 2.4-10.68a28 28 0 0 1 6.78-9.1 38 38 0 0 1 10.48-6.91 48 48 0 0 1 13.55-4.16v-28.42h17.91v28.03q5.68.6 10.93 1.78a99 99 0 0 1 9.39 2.57q4.15 1.38 6.99 2.77 3.06 1.19 4.37 1.77l-8.74 16.22a75 75 0 0 0-5.02-1.98 87 87 0 0 0-7-2.77 70 70 0 0 0-8.51-2.37 44 44 0 0 0-9.18-.99 31 31 0 0 0-13.33 2.77q-5.68 2.57-5.68 8.9 0 3.94 1.53 7.12a19 19 0 0 0 4.8 5.34q3.29 2.37 7.87 4.54 4.8 1.98 10.93 3.96 8.08 2.96 14.41 6.13 6.35 3.16 10.71 7.12a26 26 0 0 1 6.55 9.1q2.4 5.13 2.4 12.05 0 5.94-2.18 11.47a30 30 0 0 1-6.33 10.28 39 39 0 0 1-10.49 8.3 49 49 0 0 1-14.42 4.95v29.23h-17.91z"/><defs><linearGradient id="iterm_0" x1="512" x2="512" y1="100" y2="924" gradientUnits="userSpaceOnUse"><stop offset="0" stop-color="#d4e6e8"/><stop offset="1" stop-color="#767573"/></linearGradient><filter id="iterm_filter0_d" width="868" height="868" x="78" y="86" color-interpolation-filters="sRGB" filterUnits="userSpaceOnUse"><feFlood flood-opacity="0" result="BackgroundImageFix"/><feColorMatrix in="SourceAlpha" values="0 0 0 0 0 0 0 0 0 0 0 0 0 0 0 0 0 0 127 0"/><feMorphology in="SourceAlpha" operator="dilate" radius="2" result="effect1_dropShadow"/><feOffset dy="8"/><feGaussianBlur stdDeviation="10"/><feColorMatrix values="0 0 0 0 0 0 0 0 0 0 0 0 0 0 0 0 0 0 0.25 0"/><feBlend in2="BackgroundImageFix" result="effect1_dropShadow"/><feBlend in="SourceGraphic" in2="effect1_dropShadow" result="shape"/></filter></defs></svg>