<svg xmlns="http://www.w3.org/2000/svg" xml:space="preserve" overflow="visible" viewBox="-45 0 454 454"><path fill="#0074bd" fill-rule="evenodd" d="M117.2 349.6s-17.3 10 12.3 13.4c35.8 4.1 54 3.5 93.5-4 0 0 10.4 6.6 25 12.2-88.6 38-200.4-2.2-130.8-21.6m-10.9-49.5s-19.3 14.3 10.3 17.4c38.2 4 68.4 4.3 120.7-5.8 0 0 7.3 7.3 18.6 11.3-107 31.3-226.1 2.5-149.6-22.9" clip-rule="evenodd"/><path fill="#ea2d2e" fill-rule="evenodd" d="M197.5 216.1c21.8 25.2-5.7 47.7-5.7 47.7s55.3-28.5 30-64.3c-23.8-33.4-42-50 56.5-107.2 0 0-154.7 38.7-80.8 123.8" clip-rule="evenodd"/><path fill="#0074bd" fill-rule="evenodd" d="M314.5 386.2s12.8 10.5-14 18.7c-51.1 15.5-212.6 20.1-257.5.6-16.1-7 14.1-16.7 23.6-18.8 10-2.1 15.6-1.8 15.6-1.8-18-12.6-116 24.9-49.8 35.6 180.5 29.2 329-13.2 282.1-34.3m-189-137.4s-82.2 19.5-29.1 26.6c22.4 3 67 2.3 108.7-1.1 34-2.9 68-9 68-9s-11.9 5.1-20.6 11c-83.4 22-244.6 11.8-198.2-10.7 39.2-19 71.2-16.8 71.2-16.8m147.3 82.4c84.9-44 45.6-86.4 18.3-80.7-6.7 1.4-9.7 2.6-9.7 2.6s2.5-4 7.2-5.6c54.2-19 95.8 56.2-17.4 86 0 0 1.3-1.3 1.6-2.3" clip-rule="evenodd"/><path fill="#ea2d2e" fill-rule="evenodd" d="M221.7 0s47 47-44.5 119.2c-73.4 58-16.8 91 0 128.8-43-38.6-74.3-72.7-53.3-104.3 31-46.5 116.8-69 97.8-143.7" clip-rule="evenodd"/><path fill="#0074bd" fill-rule="evenodd" d="M133.8 450.6c81.4 5.2 206.4-2.9 209.4-41.4 0 0-5.7 14.6-67.3 26.2a669 669 0 0 1-206 3.2s10.4 8.6 63.9 12" clip-rule="evenodd"/></svg>