<svg xmlns="http://www.w3.org/2000/svg" viewBox="0 -7.5 128 128"><path fill="#32e6e2" d="M34.6 94.1h-1.2l-6-6v-1.2l9.2-9.2H43l.9.9V85zm-7.2-68.3v-1.2l6-6h1.2l9.2 9.2v6.4l-.8.8h-6.4z"/><path fill="#fff" d="M80.5 74.6h-8.8l-.7-.7V53.3c0-3.7-1.4-6.5-5.8-6.6q-3.5-.1-7.6.1l-.4.4v26.6l-.7.7h-8.8l-.7-.7v-35l.7-.7h19.8c7.7 0 13.9 6.2 13.9 13.9v21.9z"/><path fill="#32e6e2" d="M35.8 61.4H.7l-.7-.7v-8.8l.7-.7h35.1l.7.7v8.8zm91.5 0H92.2l-.7-.7v-8.8l.7-.7h35.1l.7.7v8.8zM58.9 27.1V.7l.8-.7h8.8l.7.7V27l-.7.7h-8.8zm0 84.8V85.6l.7-.7h8.8l.7.7v26.3l-.7.7h-8.8z"/></svg>