<svg xmlns="http://www.w3.org/2000/svg" width="256" height="292"><defs><linearGradient id="node_z" x1="68.2%" x2="27.8%" y1="17.5%" y2="89.8%"><stop offset="0%" stop-color="#41873f"/><stop offset="32.9%" stop-color="#418b3d"/><stop offset="63.5%" stop-color="#419637"/><stop offset="93.2%" stop-color="#3fa92d"/><stop offset="100%" stop-color="#3fae2a"/></linearGradient><linearGradient id="node_c" x1="43.3%" x2="159.2%" y1="55.2%" y2="-18.3%"><stop offset="13.8%" stop-color="#41873f"/><stop offset="40.3%" stop-color="#54a044"/><stop offset="71.4%" stop-color="#66b848"/><stop offset="90.8%" stop-color="#6cc04a"/></linearGradient><linearGradient id="node_f" x1="-4.4%" x2="101.5%" y1="50%" y2="50%"><stop offset="9.2%" stop-color="#6cc04a"/><stop offset="28.6%" stop-color="#66b848"/><stop offset="59.7%" stop-color="#54a044"/><stop offset="86.2%" stop-color="#41873f"/></linearGradient><path id="reuse-0" d="M135 1.8a14 14 0 0 0-14 0L6.9 67.8c-4.4 2.4-6.8 7-6.8 12V212a14 14 0 0 0 6.8 11.9l114.3 66a14 14 0 0 0 13.8 0l114.3-66c4.4-2.4 6.8-7 6.8-12V79.8a14 14 0 0 0-6.8-11.9z"/></defs><path fill="url(#node_z)" d="M135 1.8a14 14 0 0 0-14 0L6.9 67.8c-4.4 2.4-6.8 7-6.8 12V212a14 14 0 0 0 6.8 11.9l114.3 66a14 14 0 0 0 13.8 0l114.3-66c4.4-2.4 6.8-7 6.8-12V79.8a14 14 0 0 0-6.8-11.9z"/><mask id="node_d" fill="#fff"><use href="#reuse-0"/></mask><path fill="url(#node_c)" d="m249.5 67.8-114.8-66L131 .5 2.4 220.9q1.8 2.1 3.8 3.3l114.9 66q5 2.8 10.6 1.3l120.8-221q-1.4-1.5-3-2.7" mask="url(#node_d)"/><mask id="node_g" fill="#fff"><use href="#reuse-0"/></mask><path fill="url(#node_f)" d="M249.8 223.9c3.2-1.9 5.7-5.2 6.7-8.7L130.5.2c-3.2-.5-6.7-.3-9.7 1.6L6.8 67.5l123 224.3a19 19 0 0 0 5.1-1.7z" mask="url(#node_g)"/></svg>