<svg xmlns="http://www.w3.org/2000/svg" viewBox="0 0 600 600"><path fill="#93d500" d="M158.6 345H.3v2.3l.3 4.4.2 2q0 2.5.4 5v1.2l1.6 12.5a266 266 0 0 0 8.2 37.4v.1l2 6.1.1.4 1.7 5.2.5 1.3 2.4 6.5 1.5 3.7 2.3 5.6 1.6 3.6.9 2 2 4.3.6 1.3 2.4 4.8.4.7 2.7 5.3.2.2.6 1.1L168 380.6l.5-.3a108 108 0 0 1-10-35.4"/><path fill="#4d5a31" d="m197.5 417.6-.4.4L85.6 529.5l1.7 1.6 3.2 2.8 1.6 1.4 3.8 3.2 1 .9 5 4 5 3.7a267 267 0 0 0 20.8 14.1l.7.5 4.1 2.4 2.6 1.5 7.3 4 12.4 6 4-9.6 56-136.2.2-.5q-9.2-5-17.5-11.7"/><path fill="#6ba43a" d="m185.9 406.5-3.5-4.1a101 101 0 0 1-8.9-12.6L38.2 471.3l6.6 10.5.1.1.2.3.6.9 7.3 10.3.2.2.1.2 3.3 4.3.5.5q1.6 2.3 3.5 4.4l.8 1 4.7 5.4 2.8 3.2 1.6 1.7.7.8 2 2.2 1 1 3.7 3.8 111.6-111.7z"/><path fill="#4d5a31" d="m333.9 417.5-3.7 3 .2.4L411.8 556a247 247 0 0 0 34-26.5L334.3 418z"/><path fill="#93d500" d="m400 557.1-2.8-4.6-76-126-4.6 2.5-4.8 2.4a108 108 0 0 1-77 6q-2.6-.8-5-1.8-2.7-.7-5.1-1.8l-56 136.1-2.3 5.3-1.8 4.6.4.2.4.2h.2l4 1.6 5 1.9 2.5 1a267 267 0 0 0 54.2 13l2.2.2 2.2.3 4.3.4 1 .1 5.3.4 1.8.2 4.6.2 2.8.1 3.7.2h6.5a266 266 0 0 0 44.8-3.7l4.6-.9 2.7-.5 2.7-.6 4.5-1 .8-.1a267 267 0 0 0 63.7-23.8l4-2.2 4.6-2.6 3.2-1.8h.1v-.1l-.1-.3.1.3h.1l.2-.2 1-.6zM197.5 251l3.8-2.9-.3-.4-81.4-135.2a257 257 0 0 0-34 26.6L197 250.5z"/><path fill="#4d5a31" d="m77.9 146.4-3.8 3.9-3.6 3.8a266 266 0 0 0-22.6 28l-1 1.4-2.2 3.3-3.2 4.8a265 265 0 0 0-41.2 132l-.2 5.3v5.3H158l.2-5.3.3-5.4a107 107 0 0 1 23.8-57.5l3.6-4 3.6-4zm325.8-39.2-.6-.4-4.2-2.5-2.5-1.4-2.4-1.3-4.3-2.4q-.4 0-.7-.3a266 266 0 0 0-29.2-13.1l-6.4-2.3a267 267 0 0 0-53.2-12.6l-2.3-.3-2.2-.3-4.3-.5h-1.2l-5-.5-2-.1-4.5-.3h-2.3V227q12.2 1.3 24 5.2L416.9 116q-6.5-4.6-13.2-8.7"/><path fill="#6ba43a" d="m260.4 68.7-5.4.1q-16.8.7-33.4 3.5h-.7l-4.6 1q-1.4.1-2.7.4l-7.2 1.6-.8.2a268 268 0 0 0-63.7 23.7l-4 2.2-4.6 2.7-3.5 2h-.2l-1 .6 2.8 4.6L210.2 242a113 113 0 0 1 9.4-5 107 107 0 0 1 35.4-9.9 106 106 0 0 1 10.7-.6v-158z"/><path fill="#4d5a31" d="m531 321.2-.2-4.3-.1-2.1-.5-5v-1.3l-.7-5.6v-.7l-.8-6v-.2a267 267 0 0 0-8.2-37.3l-.1-.2-1.8-5.7-.2-.8-1.7-5-.5-1.5-1.6-4.4-.8-2-2.6-6.6-1.2-2.8-1.6-3.6-.9-2-2-4.3-.6-1.3-2.4-4.8-.3-.7-2.8-5.3-.1-.2a267 267 0 0 0-15.1-24.5L367.6 299.6q4 11.7 5.2 24h158.4z"/><path fill="#6ba43a" d="m373.5 334.2-.3 5.4q0 2.7-.3 5.3c-2 20.6-10 40.7-23.8 57.6l-3.6 4-3.6 3.9 111.7 111.7 3.7-4 3.7-3.8q12.4-13.5 22.6-28l.8-1.2 2.4-3.6 2.1-3.2 1-1.6a265 265 0 0 0 41.4-137.1v-5.4z"/><path fill="#424143" d="M578.3 21.7a74 74 0 0 0-118.6 85.1L298.6 268a74 74 0 1 0 33.3 33.4l161.2-161.2a74 74 0 0 0 85.2-118.5"/></svg>