<svg xmlns="http://www.w3.org/2000/svg" xmlns:xlink="http://www.w3.org/1999/xlink" fill="none" viewBox="0 0 48 46"><path fill="#00f7f1" d="M30.32 6.79a2.26 2.26 0 0 0 2.26 2.26h8.58c1 0 1.51 1.22.8 1.93L30.98 21.96c-.43.43-.67 1-.67 1.6v3.76c0 1.56 1.55 2.64 2.92 1.9a20 20 0 0 0 3.87-2.73 1.2 1.2 0 0 1 1.62.02l8 8a1.1 1.1 0 0 1-.01 1.59 33.8 33.8 0 0 1-23.18 9.15A33.8 33.8 0 0 1 .34 36.1a1.1 1.1 0 0 1-.01-1.59l8-8a1.2 1.2 0 0 1 1.62-.02 20 20 0 0 0 3.87 2.73c1.37.74 2.92-.34 2.92-1.9v-3.76c0-.6-.24-1.17-.66-1.6L5.09 10.98c-.71-.71-.2-1.93.8-1.93h8.58a2.26 2.26 0 0 0 2.27-2.26V1.13c0-.62.5-1.13 1.13-1.13h11.3c.63 0 1.14.5 1.14 1.13V6.8"/><mask id="a" width="48" height="46" x="0" y="0" maskUnits="userSpaceOnUse" style="mask-type:alpha"><path fill="#d9d9d9" d="M30.32 6.79a2.26 2.26 0 0 0 2.26 2.26h8.58c1 0 1.51 1.22.8 1.93L30.98 21.96c-.43.43-.67 1-.67 1.6v3.76c0 1.56 1.55 2.64 2.92 1.9a20 20 0 0 0 3.87-2.73 1.2 1.2 0 0 1 1.62.02l8 8a1.1 1.1 0 0 1-.01 1.59 33.8 33.8 0 0 1-23.18 9.15A33.8 33.8 0 0 1 .34 36.1a1.1 1.1 0 0 1-.01-1.59l8-8a1.2 1.2 0 0 1 1.62-.02 20 20 0 0 0 3.87 2.73c1.37.74 2.92-.34 2.92-1.9v-3.76c0-.6-.24-1.17-.66-1.6L5.09 10.98c-.71-.71-.2-1.93.8-1.93h8.58a2.26 2.26 0 0 0 2.27-2.26V1.13c0-.62.5-1.13 1.13-1.13h11.3c.63 0 1.14.5 1.14 1.13V6.8"/></mask><g mask="url(#a)"><g filter="url(#b)"><ellipse cx="4.62" cy="21.5" fill="#93fffc" rx="4.62" ry="21.5" transform="matrix(0 -1 -1 0 44.9 50.6)"/></g><g filter="url(#c)"><ellipse cx="4.62" cy="21.5" fill="#00ff79" rx="4.62" ry="21.5" transform="rotate(68 1.9 66.79)scale(-1 1)"/></g><g filter="url(#d)"><ellipse cx="5.2" cy="44.01" fill="#0060ff" rx="4.62" ry="21.5" transform="rotate(-68 5.2 44.01)"/></g><g filter="url(#e)"><ellipse cx="31.93" cy="28.89" fill="#93fffc" rx="3.72" ry="6.27" transform="rotate(-135 31.93 28.9)"/></g><g filter="url(#f)"><ellipse cx="33.84" cy="25.45" fill="#0060ff" rx="3.72" ry="6.27" transform="rotate(-135 33.84 25.45)"/></g><g filter="url(#g)"><ellipse cx="33.46" cy="6.3" fill="#93fffc" rx="3.72" ry="6.27" transform="rotate(-135 33.46 6.3)"/></g><g filter="url(#h)"><ellipse cx="34.61" cy="4.77" fill="#0060ff" rx="3.72" ry="6.27" transform="rotate(-135 34.6 4.77)"/></g><g filter="url(#i)"><ellipse cx="3.72" cy="6.27" fill="#93fffc" rx="3.72" ry="6.27" transform="rotate(135 1.05 21.92)scale(-1 1)"/></g><g filter="url(#j)"><ellipse cx="3.72" cy="6.27" fill="#0060ff" rx="3.72" ry="6.27" transform="rotate(135 .42 19.64)scale(-1 1)"/></g><g filter="url(#k)"><ellipse cx="3.72" cy="6.27" fill="#93fffc" rx="3.72" ry="6.27" transform="rotate(-45 23.49 -11)scale(1 -1)"/></g><g filter="url(#l)"><ellipse cx="3.72" cy="6.27" fill="#0060ff" rx="3.72" ry="6.27" transform="rotate(135 4.8 8.45)scale(-1 1)"/></g><g filter="url(#m)"><ellipse cx="3.72" cy="11.95" fill="#0060ff" rx="3.72" ry="11.95" transform="rotate(135 1.56 17.42)scale(-1 1)"/></g><g filter="url(#n)"><ellipse cx="38.99" cy="14.52" fill="#00ff79" rx="3.72" ry="11.95" transform="rotate(-135 39 14.52)"/></g><g filter="url(#o)"><ellipse cx="4.62" cy="21.5" fill="#0060ff" rx="4.62" ry="21.5" transform="matrix(0 -1 -1 0 44.9 52.5)"/></g></g><defs><filter id="b" width="61.38" height="27.62" x="-7.29" y="32.17" color-interpolation-filters="sRGB" filterUnits="userSpaceOnUse"><feFlood flood-opacity="0" result="BackgroundImageFix"/><feBlend in="SourceGraphic" in2="BackgroundImageFix" result="shape"/><feGaussianBlur result="effect1_foregroundBlur_2002_17235" stdDeviation="4.6"/></filter><filter id="c" width="58.49" height="36.43" x="12.34" y="25.8" color-interpolation-filters="sRGB" filterUnits="userSpaceOnUse"><feFlood flood-opacity="0" result="BackgroundImageFix"/><feBlend in="SourceGraphic" in2="BackgroundImageFix" result="shape"/><feGaussianBlur result="effect1_foregroundBlur_2002_17235" stdDeviation="4.6"/></filter><filter id="d" width="58.49" height="36.43" x="-24.05" y="25.8" color-interpolation-filters="sRGB" filterUnits="userSpaceOnUse"><feFlood flood-opacity="0" result="BackgroundImageFix"/><feBlend in="SourceGraphic" in2="BackgroundImageFix" result="shape"/><feGaussianBlur result="effect1_foregroundBlur_2002_17235" stdDeviation="4.6"/></filter><filter id="e" width="28.67" height="28.71" x="17.59" y="14.54" color-interpolation-filters="sRGB" filterUnits="userSpaceOnUse"><feFlood flood-opacity="0" result="BackgroundImageFix"/><feBlend in="SourceGraphic" in2="BackgroundImageFix" result="shape"/><feGaussianBlur result="effect1_foregroundBlur_2002_17235" stdDeviation="4.6"/></filter><filter id="f" width="28.67" height="28.71" x="19.51" y="11.09" color-interpolation-filters="sRGB" filterUnits="userSpaceOnUse"><feFlood flood-opacity="0" result="BackgroundImageFix"/><feBlend in="SourceGraphic" in2="BackgroundImageFix" result="shape"/><feGaussianBlur result="effect1_foregroundBlur_2002_17235" stdDeviation="4.6"/></filter><filter id="g" width="28.67" height="28.71" x="19.12" y="-8.06" color-interpolation-filters="sRGB" filterUnits="userSpaceOnUse"><feFlood flood-opacity="0" result="BackgroundImageFix"/><feBlend in="SourceGraphic" in2="BackgroundImageFix" result="shape"/><feGaussianBlur result="effect1_foregroundBlur_2002_17235" stdDeviation="4.6"/></filter><filter id="h" width="28.67" height="28.71" x="20.27" y="-9.59" color-interpolation-filters="sRGB" filterUnits="userSpaceOnUse"><feFlood flood-opacity="0" result="BackgroundImageFix"/><feBlend in="SourceGraphic" in2="BackgroundImageFix" result="shape"/><feGaussianBlur result="effect1_foregroundBlur_2002_17235" stdDeviation="4.6"/></filter><filter id="i" width="28.67" height="28.71" x="1.12" y="15.31" color-interpolation-filters="sRGB" filterUnits="userSpaceOnUse"><feFlood flood-opacity="0" result="BackgroundImageFix"/><feBlend in="SourceGraphic" in2="BackgroundImageFix" result="shape"/><feGaussianBlur result="effect1_foregroundBlur_2002_17235" stdDeviation="4.6"/></filter><filter id="j" width="28.67" height="28.71" x="-1.56" y="11.86" color-interpolation-filters="sRGB" filterUnits="userSpaceOnUse"><feFlood flood-opacity="0" result="BackgroundImageFix"/><feBlend in="SourceGraphic" in2="BackgroundImageFix" result="shape"/><feGaussianBlur result="effect1_foregroundBlur_2002_17235" stdDeviation="4.6"/></filter><filter id="k" width="28.67" height="28.71" x="-1.56" y="-8.06" color-interpolation-filters="sRGB" filterUnits="userSpaceOnUse"><feFlood flood-opacity="0" result="BackgroundImageFix"/><feBlend in="SourceGraphic" in2="BackgroundImageFix" result="shape"/><feGaussianBlur result="effect1_foregroundBlur_2002_17235" stdDeviation="4.6"/></filter><filter id="l" width="28.67" height="28.71" x="-1.94" y="-10.35" color-interpolation-filters="sRGB" filterUnits="userSpaceOnUse"><feFlood flood-opacity="0" result="BackgroundImageFix"/><feBlend in="SourceGraphic" in2="BackgroundImageFix" result="shape"/><feGaussianBlur result="effect1_foregroundBlur_2002_17235" stdDeviation="4.6"/></filter><filter id="m" width="36.03" height="36.13" x="-8.86" y="-.48" color-interpolation-filters="sRGB" filterUnits="userSpaceOnUse"><feFlood flood-opacity="0" result="BackgroundImageFix"/><feBlend in="SourceGraphic" in2="BackgroundImageFix" result="shape"/><feGaussianBlur result="effect1_foregroundBlur_2002_17235" stdDeviation="4.6"/></filter><filter id="n" width="36.03" height="36.13" x="20.98" y="-3.55" color-interpolation-filters="sRGB" filterUnits="userSpaceOnUse"><feFlood flood-opacity="0" result="BackgroundImageFix"/><feBlend in="SourceGraphic" in2="BackgroundImageFix" result="shape"/><feGaussianBlur result="effect1_foregroundBlur_2002_17235" stdDeviation="4.6"/></filter><filter id="o" width="61.38" height="27.62" x="-7.29" y="34.08" color-interpolation-filters="sRGB" filterUnits="userSpaceOnUse"><feFlood flood-opacity="0" result="BackgroundImageFix"/><feBlend in="SourceGraphic" in2="BackgroundImageFix" result="shape"/><feGaussianBlur result="effect1_foregroundBlur_2002_17235" stdDeviation="4.6"/></filter></defs></svg>