<svg xmlns="http://www.w3.org/2000/svg" width="85pt" height="85pt" viewBox="-1 0 113 113"><defs><linearGradient id="linearGradient4671"><stop id="stop4673" offset="0" stop-color="#ffd43b" stop-opacity="1"/><stop id="stop4675" offset="1" stop-color="#ffe873" stop-opacity="1"/></linearGradient><linearGradient id="linearGradient4689"><stop id="stop4691" offset="0" stop-color="#5a9fd4" stop-opacity="1"/><stop id="stop4693" offset="1" stop-color="#306998" stop-opacity="1"/></linearGradient><linearGradient id="linearGradient1475" x1="150.96" x2="112.03" y1="192.35" y2="137.27" gradientTransform="matrix(.56 0 0 .57 -15 -11.7)" gradientUnits="userSpaceOnUse" href="#linearGradient4671"/><linearGradient id="linearGradient1478" x1="26.65" x2="135.67" y1="20.6" y2="114.4" gradientTransform="matrix(.56 0 0 .57 -15 -11.7)" gradientUnits="userSpaceOnUse" href="#linearGradient4689"/></defs><path id="path1948" fill="url(#linearGradient1478)" fill-opacity="1" d="M54.92 0a76 76 0 0 0-12.81 1.1C30.76 3.1 28.7 7.3 28.7 15.03v10.22h26.81v3.4H18.64c-7.8 0-14.62 4.7-16.75 13.6-2.46 10.21-2.57 16.59 0 27.25 1.9 7.94 6.46 13.6 14.25 13.6h9.22V70.83C25.36 62 33 54.2 42.1 54.2h26.78a13.5 13.5 0 0 0 13.4-13.63V15.03c0-7.26-6.13-12.72-13.4-13.94A84 84 0 0 0 54.92 0m-14.5 8.22c2.77 0 5.03 2.3 5.03 5.12s-2.26 5.1-5.03 5.1a5.06 5.06 0 0 1-5.03-5.1 5.1 5.1 0 0 1 5.03-5.12"/><path id="path1950" fill="url(#linearGradient1475)" fill-opacity="1" d="M85.64 28.66v11.9c0 9.23-7.83 17-16.75 17H42.1c-7.34 0-13.41 6.28-13.41 13.63v25.53c0 7.27 6.32 11.54 13.4 13.62 8.5 2.5 16.63 2.95 26.79 0 6.75-1.95 13.4-5.88 13.4-13.62V86.5H55.51v-3.4H95.7c7.8 0 10.7-5.44 13.4-13.6 2.8-8.4 2.69-16.47 0-27.25-1.92-7.76-5.6-13.6-13.4-13.6zM70.58 93.3a5.06 5.06 0 0 1 5.03 5.1 5.1 5.1 0 0 1-5.03 5.12 5.1 5.1 0 0 1-5.04-5.12c0-2.82 2.27-5.1 5.04-5.1"/></svg>