<svg xmlns="http://www.w3.org/2000/svg" xml:space="preserve" viewBox="0 0 70 70"><linearGradient id="rubymine_c" x1="49.6" x2="30.3" y1="52.6" y2="7.2" gradientUnits="userSpaceOnUse"><stop offset=".2" stop-color="#ff1f51"/><stop offset=".3" stop-color="#ff3648"/><stop offset=".5" stop-color="#ff593b"/><stop offset=".6" stop-color="#ff7231"/><stop offset=".8" stop-color="#ff812b"/><stop offset=".9" stop-color="#ff8629"/></linearGradient><path fill="url(#rubymine_c)" d="m58.2 0-20 7.2L22.4 0 6.9 38.9l17.8-7.1-.3 19.7 38.1.7L70 13.7z"/><linearGradient id="rubymine_b" x1="33.3" x2="25.1" y1="12.9" y2="33.4" gradientUnits="userSpaceOnUse"><stop offset="0" stop-color="#9039d0"/><stop offset=".6" stop-color="#ff1f51"/></linearGradient><path fill="url(#rubymine_b)" d="M50.8 22.7 25.6 6.2 5.3 18.7l44.5 17.2z"/><linearGradient id="rubymine_a" x1=".3" x2="45.3" y1="11.2" y2="68.4" gradientUnits="userSpaceOnUse"><stop offset=".1" stop-color="#9039d0"/><stop offset=".4" stop-color="#ff1f51"/><stop offset=".6" stop-color="#ff1f51"/><stop offset=".7" stop-color="#ff3648"/><stop offset=".7" stop-color="#ff593b"/><stop offset=".8" stop-color="#ff7231"/><stop offset=".8" stop-color="#ff812b"/><stop offset=".8" stop-color="#ff8629"/></linearGradient><path fill="url(#rubymine_a)" d="m29.1 68.2 26.2-3.5-8.3-16 5.5-6.7.6-4.1L25.6 6.1 0 12.4v36.7L14.8 70z"/><path d="M13.4 13.4h43.2v43.2H13.4z"/><path fill="#fff" d="M17.5 48.5h16.2v2.7H17.5zM34.6 19h4.3l4.7 7.6 4.7-7.6h4.3v17.9h-4V25.2l-5 7.7h-.1l-5-7.6v11.6h-3.9zm-17.2 0h8.2q3.4 0 5.2 1.8 1.5 1.5 1.5 4.1v.1q0 2.2-1.1 3.5c-1.1 1.3-1.6 1.6-2.8 2l4.4 6.4h-4.6l-3.7-5.5h-3.3v5.5h-3.9V19zm8 8.7q1.5 0 2.2-.7 1-.9.8-1.8v-.1q0-1.3-.8-1.9-1-.7-2.3-.6h-3.9v5.1z"/></svg>