<svg xmlns="http://www.w3.org/2000/svg" viewBox="0 0 54 54"><path fill="#44bedf" d="M19.71.13a5.4 5.4 0 0 0-5.37 5.39 5.4 5.4 0 0 0 5.37 5.39h5.38V5.52A5.4 5.4 0 0 0 19.7.13m0 14.37H5.38A5.4 5.4 0 0 0 0 19.88a5.4 5.4 0 0 0 5.38 5.4H19.7a5.4 5.4 0 0 0 5.38-5.4 5.4 5.4 0 0 0-5.38-5.38"/><path fill="#2eb67d" d="M53.76 19.88a5.4 5.4 0 0 0-5.38-5.38 5.4 5.4 0 0 0-5.37 5.38v5.4h5.37a5.4 5.4 0 0 0 5.38-5.4m-14.34 0V5.52A5.4 5.4 0 0 0 34.05.13a5.4 5.4 0 0 0-5.38 5.39v14.36a5.4 5.4 0 0 0 5.38 5.4 5.4 5.4 0 0 0 5.37-5.4"/><path fill="#ecb22e" d="M34.05 54a5.4 5.4 0 0 0 5.37-5.39 5.4 5.4 0 0 0-5.37-5.38h-5.38v5.38A5.4 5.4 0 0 0 34.05 54m0-14.36h14.33a5.4 5.4 0 0 0 5.38-5.4 5.4 5.4 0 0 0-5.38-5.38H34.05a5.4 5.4 0 0 0-5.38 5.39 5.4 5.4 0 0 0 5.38 5.38"/><path fill="#e01e5a" d="M0 34.25a5.4 5.4 0 0 0 5.38 5.39 5.4 5.4 0 0 0 5.37-5.4v-5.38H5.38A5.4 5.4 0 0 0 0 34.25m14.34 0V48.6A5.4 5.4 0 0 0 19.7 54a5.4 5.4 0 0 0 5.38-5.39V34.25a5.4 5.4 0 0 0-5.38-5.39 5.4 5.4 0 0 0-5.37 5.39"/></svg>