<svg xmlns="http://www.w3.org/2000/svg" viewBox="-133 188 150 150"><path fill="#85ea2d" d="M-57.7 333.8c-38.8 0-70.4-31.6-70.4-70.4S-96.5 193-57.7 193s70.4 31.6 70.4 70.4-31.6 70.4-70.4 70.4"/><path fill="#173647" d="M-57.7 196.6a66.9 66.9 0 1 1 0 133.8 66.9 66.9 0 1 1 0-133.8m0-7.1c-40.8 0-73.9 33.2-73.9 73.9s33.2 73.9 73.9 73.9 73.9-33.2 73.9-73.9-33.2-73.9-73.9-73.9"/><path fill="#173647" d="M-85.1 239.6c-.2 2.5.1 5.1-.1 7.7s-.5 5.1-1 7.6c-.7 3.6-3 6.3-6.1 8.6 6 3.9 6.7 10 7.1 16.2.2 3.3.1 6.7.5 10 .3 2.6 1.2 3.2 3.9 3.3h3.4v7.9c-7.8 1.3-14.3-.9-15.9-7.5-.5-2.4-.9-4.9-1-7.4-.2-2.6.1-5.3-.1-7.9-.6-7.2-1.5-9.7-8.4-10v-9l1.5-.3c3.8-.2 5.4-1.4 6.3-5.1.4-2.1.6-4.2.7-6.4.3-4.1.2-8.3.9-12.4 1-5.9 4.6-8.7 10.7-9.1 1.7-.1 3.4 0 5.4 0v8.1c-.8.1-1.5.2-2.3.2-4.9-.3-5.1 1.4-5.5 5.5m9.5 18.7h-.1c-2.8-.1-5.3 2.1-5.4 4.9a5.3 5.3 0 0 0 4.9 5.5h.3c2.8.2 5.2-2 5.4-4.8v-.3c0-2.9-2.3-5.3-5.1-5.3m17.8 0c-2.8-.1-5.1 2.1-5.1 4.8v.5c0 3.1 2.1 5.1 5.3 5.1 3.1 0 5.1-2 5.1-5.3-.1-3.1-2.2-5.2-5.3-5.1m18.2 0c-2.9-.1-5.3 2.2-5.4 5.1 0 2.9 2.3 5.2 5.2 5.2h.1c2.6.5 5.3-2.1 5.4-5.1.2-2.8-2.4-5.2-5.3-5.2m25.1.4c-3.3-.1-4.9-1.2-5.8-4.4-.5-2-.8-4.1-.9-6.1-.2-3.8-.2-7.6-.5-11.5-.6-9-7.1-12.2-16.6-10.6v7.8h3.8c2 0 3.6.8 3.8 3 .2 2 .2 4.1.4 6.2.4 4.1.6 8.3 1.3 12.4.6 3.4 2.9 5.9 5.8 7.9-5 3.4-6.5 8.2-6.8 13.6-.1 3.7-.2 7.5-.4 11.2-.2 3.4-1.4 4.5-4.8 4.6-1 0-1.9.1-3 .2v8c2 0 3.9.1 5.7 0 5.7-.3 9.2-3.1 10.3-8.7q.75-4.65.9-9.3c.2-2.8.2-5.7.5-8.5.4-4.4 2.4-6.2 6.8-6.5.4-.1.8-.1 1.2-.3v-9c-.7.1-1.2 0-1.7 0"/></svg>