<svg xmlns="http://www.w3.org/2000/svg" preserveAspectRatio="xMidYMid" viewBox="0 -51 256 256"><defs><linearGradient id="ca" x1="-2.8%" x2="100%" y1="32%" y2="67.6%" gradientUnits="userSpaceOnUse"><stop offset="0%" stop-color="#2298bd"/><stop offset="100%" stop-color="#0ed7b5"/></linearGradient></defs><path fill="url(#ca)" d="M128 0Q76.8 0 64 51.2 83.2 25.6 108.8 32c9.7 2.4 16.7 9.5 24.4 17.3 12.6 12.8 27 27.5 58.8 27.5q51.2 0 64-51.2-19.2 25.6-44.8 19.2c-9.7-2.4-16.7-9.5-24.4-17.3C174.2 14.7 159.8 0 128 0M64 76.8q-51.2 0-64 51.2 19.2-25.6 44.8-19.2c9.7 2.4 16.7 9.5 24.4 17.3 12.6 12.8 27 27.5 58.8 27.5q51.2 0 64-51.2-19.2 25.6-44.8 19.2c-9.7-2.4-16.7-9.5-24.4-17.3-12.6-12.8-27-27.5-58.8-27.5"/></svg>