<svg xmlns="http://www.w3.org/2000/svg" width="64" height="64" fill="none"><defs><linearGradient id="a" x1="7.67" x2="61.13" y1="64.39" y2="39.61" gradientUnits="userSpaceOnUse"><stop offset=".1" stop-color="#3bea62"/><stop offset=".59" stop-color="#6b57ff"/></linearGradient><linearGradient id="b" x1="59.93" x2="1.34" y1="59.68" y2="1.08" gradientUnits="userSpaceOnUse"><stop offset=".26" stop-color="#6b57ff"/><stop offset=".65" stop-color="#07c3f2"/></linearGradient></defs><path fill="#3bea62" d="M6 47.55v12.26c0 2.3 1.89 4.16 4.2 4.12l11.03-.17a4.1 4.1 0 0 0 3.07-1.44L57 24.16c.65-.75 1-1.7 1-2.69V10.13A4.13 4.13 0 0 0 53.87 6h-11c-1.19 0-2.32.51-3.1 1.4L7.02 44.84A4 4 0 0 0 6 47.55"/><path fill="url(#a)" d="M6 49.01v10.87A4.1 4.1 0 0 0 10.13 64h12.56q.3 0 .6-.04l37.18-5.45A4.1 4.1 0 0 0 64 54.43v-15.4a4.1 4.1 0 0 0-4.13-4.12h-18.5q-.65 0-1.25.2L8.87 45.08A4.1 4.1 0 0 0 6 49.01"/><path fill="url(#b)" d="M0 4.13v34.12c0 1.66 1 3.16 2.52 3.8l37.42 15.8q.79.33 1.64.32l18.33-.15A4.13 4.13 0 0 0 64 53.9V36.23c0-.8-.24-1.59-.68-2.26L42.22 1.86A4.1 4.1 0 0 0 38.76 0H4.12A4.13 4.13 0 0 0 0 4.12"/><path fill="#000" d="M52 12H12v40h40z"/><path fill="#fff" d="M30.04 28.46a7.3 7.3 0 0 0 2.75 2.79 7.6 7.6 0 0 0 3.9 1q1.82 0 3.34-.67a7 7 0 0 0 2.54-1.89 6.4 6.4 0 0 0 1.35-2.8h-3.06a4 4 0 0 1-2.33 2.39 4.9 4.9 0 0 1-4.22-.33 4.6 4.6 0 0 1-1.68-1.83q-.6-1.17-.6-2.62t.6-2.62 1.68-1.83a4.9 4.9 0 0 1 4.22-.33 4 4 0 0 1 2.33 2.38h3.06a6.4 6.4 0 0 0-1.35-2.8 7 7 0 0 0-2.54-1.89 8 8 0 0 0-3.34-.67q-2.16 0-3.9 1.01a7.3 7.3 0 0 0-2.75 2.79q-1 1.77-1 3.96c0 2.19.34 2.78 1 3.96M16 17h12.04v2.63h-4.55V32h-2.92V19.63H16zm17 27H17v3h16z"/></svg>