<svg xmlns="http://www.w3.org/2000/svg" width="176.3" height="176.3" viewBox="10 3 194 194"><g fill="none" fill-rule="evenodd"><path fill="#b93346" d="M48.17 87.28s-31.37 22.08-32.6 30.5l2.36-.49S55.5 92.4 85.28 89.35l.67-3.77zm49.25-3.15-24.71 17.52 1.33 1.08c1.01-.82 43.9-13.92 43.9-13.92l9.04-5.66c-6.06.75-29.56.98-29.56.98m21.48 21.2c17.55 0 43.85-17.2 43.85-17.2l-8.5-1.61c-.42.42-13.71-.47-13.71-.47l-6.31-1.75-15.08 17.18-1.22 2.98c1.08-.44.97.87.97.87m-74.08 65.1-.36-.17-2.03-1.75zm131.34-10.3-5.42 1.53-25.05-.54-15.67-12.19-18.93 4.74-21.9-1.9-12.27 13.41-23.02 6.87-11.49-3.56-.58-.5L47 180.62s11.68 12.53 18.2 14c6.53 1.48 18.32-.1 27.17-1.47 8.84-1.37 15.89-4.53 18.73-9.68 2.84-5.16 3.26-6.64 3.26-6.64s8.42 11.9 15.69 13.27 28.84-6 28.84-6 13.15-3.58 15.47-8.1c2.31-4.53 8.42-19.37 8.42-19.37z"/><path fill="#f4eeaa" d="M197.44 70.66a51 51 0 0 0-.21-2.02L197 67.2a41 41 0 0 0-6-4.1 80 80 0 0 0-7.22-3.7 141 141 0 0 0-7.52-3.23 135 135 0 0 0-3.83-1.5q-1.92-.73-3.87-1.43a107 107 0 0 1 13.26 3.24c-12.2-31.9-41.4-52.69-73.28-52.69s-61.07 20.78-73.28 52.7q2.58-.81 5.18-1.5c2.67-.68 5.37-1.3 8.08-1.75q-1.94.7-3.87 1.44-1.9.71-3.83 1.49a144 144 0 0 0-7.52 3.23 81 81 0 0 0-7.21 3.7 42 42 0 0 0-6 4.1 41 41 0 0 0-.43 3.46 53 53 0 0 0-.18 4.1 60 60 0 0 0 2.11 16.19 44 44 0 0 0 1.25 3.84 34 34 0 0 0 1.19 2.7l.17.33.62.3 1.2.58c.69.3 1.62.75 2.4 1.1l.12-.11-2.25-8.59c.48-.13 4.75-1.23 12.13-2.63a41 41 0 0 1-1.79-.39 37 37 0 0 1-4.94-1.58 23 23 0 0 1-2.32-1.12 8 8 0 0 1-2.06-1.56c8.1 2.64 24.84 1.44 39.72-.1A407 407 0 0 1 108 81.39c13.7.02 27.36.93 40.96 2.34 14.89 1.53 31.63 2.73 39.73.09a8 8 0 0 1-2.05 1.56q-1.13.63-2.33 1.12-2.41.97-4.94 1.58l-.75.17a202 202 0 0 1 13.3 2.85l-2.16 8.18 1.3-.58 1.21-.58.61-.3.17-.33q.23-.43.42-.87.42-.9.77-1.83a43 43 0 0 0 1.26-3.84 59 59 0 0 0 2.1-16.2 52 52 0 0 0-.17-4.09"/><path fill="#e1c8a5" d="M117.75 184.16a44 44 0 0 1-3.22.38c-.68.03-1.41.1-2.07.1h-.25l1.94-4.37c.97 1.09 2.2 2.44 3.6 3.89m2.33 2.37a18.8 18.8 0 0 0 12 5.53 66 66 0 0 1-20.36 4.67 50 50 0 0 1-16.61-1.79c.46-.08.8-.14 1.2-.19.45-.05 10.29-1.34 14.72-7.93h1.51c.74 0 1.4-.06 2.11-.1a44 44 0 0 0 4.92-.7z"/><path fill="#5f655d" d="m129.52 87.79-1.06 1.35a88 88 0 0 1-7.86 8.7 369 369 0 0 0-11.5-.18q-9.77.01-18.68.46a149 149 0 0 1 29.34-8.92 115 115 0 0 1 9.76-1.42m-49.05 3.76a75 75 0 0 0-9.64 8.03 362 362 0 0 0-21.74 2.84 165 165 0 0 1 31.39-10.87m102.49 17.31-3.41 23.88-16.35 11.44-42.63-4.84-6.42-21.13a1.4 1.4 0 0 0-1.11-.98 27 27 0 0 0-4.14-.39q-1.77 0-4.15.39a1.4 1.4 0 0 0-1.12.98l-6.26 20.61L55 148.25l-16.8-11.77-3.3-26.79 2.18-1.22q1.58-.33 3.5-.7l3.13 25.27q.08.62.59.98l11.56 8.1a1.4 1.4 0 0 0 1.1.2l34.86-7.75q.18-.04.35-.12c.32-.17.58-.47.68-.83l6.28-20.67c1.68-.43 6-1.44 9.79-1.44s8.1 1 9.78 1.44l6.27 20.67c.16.53.63.92 1.19.98l34.85 3.96c.34.04.69-.05.96-.24l11.56-8.1q.5-.35.58-.95l3.09-21.6q3.49.68 5.78 1.18m4.3-14.97-3 11.38a330 330 0 0 0-37.96-5.79c6-2.56 12.1-5.76 17.68-9.77a292 292 0 0 1 23.28 4.18"/><path fill="#e0c59b" d="M116.44 101.52a47 47 0 0 1-5.29 3.74l-6.14 3.7a53 53 0 0 0-7.4 1.49 1.4 1.4 0 0 0-.95.94l-6.26 20.63-33.46 7.44-10.53-7.38-3.07-24.84c5.98-1.1 13.99-2.37 23.6-3.45a57 57 0 0 0-2.98 3.89l-5.72 8.22 8.33-5.56c.13-.09 5.43-3.58 14.12-7.83a380 380 0 0 1 28.41-1.06q3.75 0 7.34.07m-52.08 27.97c2.38-1.28 5.07-1.09 9.27-1.08l1.4-.01 1.27-.02c4.33-.04 7.93.37 7.87-6.43-.07-6.8-3.09-12.3-7.42-12.26s-8.52 5.61-8.26 12.4c.07 1.78.33 3.06.75 3.98-3.78.94-4.82 3.28-4.88 3.42m110.07-22.33-3.01 21.12-10.63 7.44-33.41-3.8-6.23-20.53a1.4 1.4 0 0 0-.96-.94c-.2-.06-4.34-1.24-8.73-1.62l.8-.06c.7-.05 12.22-1.46 25.98-6.2a356 356 0 0 1 36.2 4.6m-21.35 19.55c-.04-.17-.95-2.9-4.98-2.42.46-1.01.67-2.38.52-4.25-.53-6.78-4.48-12.18-8.8-12.03s-7.1 5.78-6.86 12.59 3.87 6.75 8.2 6.6c5.81-.12 9-1.9 11.92-.5"/><path fill="#bfac91" d="M116.44 101.52a47 47 0 0 1-5.29 3.74l-6.14 3.7a53 53 0 0 0-7.4 1.49 1.4 1.4 0 0 0-.95.94l-6.26 20.63-33.46 7.44-10.53-7.38-3.07-24.84c5.98-1.1 13.99-2.37 23.6-3.45a57 57 0 0 0-2.98 3.89l-5.72 8.22 8.33-5.56c.13-.09 5.43-3.58 14.12-7.83a380 380 0 0 1 28.41-1.06q3.75 0 7.34.07m-52.08 27.97c2.38-1.28 5.07-1.09 9.27-1.08l1.4-.01 1.27-.02c4.33-.04 7.93.37 7.87-6.43-.07-6.8-3.09-12.3-7.42-12.26s-8.52 5.61-8.26 12.4c.07 1.78.33 3.06.75 3.98-3.78.94-4.82 3.28-4.88 3.42m110.07-22.33-3.01 21.12-10.63 7.44-33.41-3.8-6.23-20.53a1.4 1.4 0 0 0-.96-.94c-.2-.06-4.34-1.24-8.73-1.62l.8-.06c.7-.05 12.22-1.46 25.98-6.2a356 356 0 0 1 36.2 4.6m-21.35 19.55c-.04-.17-.95-2.9-4.98-2.42.46-1.01.67-2.38.52-4.25-.53-6.78-4.48-12.18-8.8-12.03s-7.1 5.78-6.86 12.59 3.87 6.75 8.2 6.6c5.81-.12 9-1.9 11.92-.5"/><path fill="#e1c8a5" d="M189.02 116.45c.51.42.92 1.51.46 6.61-.56 6.24-3.19 17.19-4.81 18.95-1.8.35-5.55-.06-7.84-.6.4-1.57.5-2.32.82-3.93l4.01-2.8c.32-.22.53-.57.59-.95l2.8-19.63a38 38 0 0 1 3.97 2.35M41.27 142.06q.3 1.07.63 2.12c-2.16.63-6.55 1.24-8.53.9-1.65-1.66-4.72-13.08-5.4-19.14-.54-4.91-.16-5.97.34-6.38.58-.5 2.75-1.73 4.63-2.73l2.54 20.61q.08.62.6.98zm81.06.3-.15 1.3s-4.62 4.29-12.05 5.25-13.28-3.61-13.28-3.61c.24.8.59 2.58 2.27 4.12a53 53 0 0 0-6.36-.4q-1.23 0-2.42.06c-4.58.24-11.02 7.16-15.55 14.13-2.22.7-9.16 2.9-17.2 5.28a91 91 0 0 1-11.56-22.11l-.44-1.28 1.93 1.34 4.77 3.35 1.6 1.1q.35.26.8.26l.3-.03 43.8-9.75a1.4 1.4 0 0 0 1.02-.96l6.25-20.56q1.61-.22 2.84-.22 1.21 0 2.83.22l6.43 21.17c.16.54.63.93 1.18.99z"/><path fill="#e1c8a5" d="m172.33 141.21 1.41-.99a90 90 0 0 1-.75 2.92 101 101 0 0 1-6.86 16.8 26 26 0 0 1-1.82.05c-1.99 0-4.02-.16-6.26-.37-3.9-.36-10.1-1.07-12.05-1.3a2931 2931 0 0 0-12.24-9.69l-.5-.42a5.2 5.2 0 0 0-3.75-1.53c-1.77 0-4.35.65-10.58 2.53 3.24-2.42 3.26-5.54 3.26-5.54l.15-1.32 41.08 4.67q.53.05.97-.25l4.12-2.89z"/><path fill="#e7d193" d="M142.1 54.78c.12 3.66.03 10.28-1.68 16.48a1.3 1.3 0 0 0 0 .71 264 264 0 0 0-6.5-.6A36 36 0 0 0 137 58.94a57 57 0 0 0 5.1-4.16m-62 4.16c.12 1.91.65 7.33 3.08 12.42a257 257 0 0 0-6.5.6q.1-.34 0-.7c-1.7-6.19-1.78-12.82-1.66-16.48a56 56 0 0 0 5.09 4.16"/><path fill="#292c2d" d="M139.48 116.75a2.2 2.2 0 0 0 2.17-2.26 2.2 2.2 0 0 0-2.25-2.17 2.2 2.2 0 0 0-2.17 2.25 2.2 2.2 0 0 0 2.25 2.18m13.6 9.95c-2.91-1.4-6.1.38-11.93.5-4.32.14-7.96.2-8.2-6.6s2.54-12.43 6.87-12.58 8.27 5.24 8.8 12.02a8.5 8.5 0 0 1-.52 4.25c4.03-.48 4.94 2.25 4.98 2.41"/><path fill="#eef7f8" d="M141.65 114.5a2.2 2.2 0 0 1-2.17 2.25 2.2 2.2 0 0 1-2.25-2.18 2.2 2.2 0 0 1 2.17-2.25 2.2 2.2 0 0 1 2.25 2.17"/><path fill="#292c2d" d="M77.48 118.39a2.21 2.21 0 0 0-.12-4.43 2.21 2.21 0 1 0 .12 4.43m6.69 3.55c.06 6.8-3.54 6.4-7.87 6.44l-2.67.03c-4.2-.01-6.89-.2-9.27 1.08.06-.14 1.1-2.48 4.88-3.42-.42-.93-.68-2.2-.75-3.97-.26-6.8 3.93-12.37 8.26-12.41s7.35 5.45 7.42 12.25"/><path fill="#eef7f8" d="M79.63 116.12a2.21 2.21 0 0 1-4.42.11 2.21 2.21 0 0 1 4.42-.11"/><path fill="#ead698" d="m49.93 76.48-.5-.95-.03-2.49 1.31-14.82 22.75-5.51 1.42 19.13c-1.1-1.5-2.76-4.88-3.78-9.53-.55-2.48-2.3-3.18-4.33-3.18-1.77 0-3.73.53-5.27.9-3.31.79-7.64 1.89-8.35 3.62-1.37 3.36-2.04 12.12-2.04 12.12zm117.46 0-1.18-.7s-.67-8.77-2.05-12.13c-.7-1.73-5.04-2.83-8.34-3.62-1.54-.37-3.51-.9-5.27-.9-2.03 0-3.79.7-4.34 3.18-1.02 4.65-2.67 8.03-3.77 9.53l1.41-19.13 22.75 5.5 1.12 12.64-.04 5.09z"/><path fill="#ead799" d="m131.8 73.05-45.86-.09-2.37-5.35-1.7-9.17-3.74-2.97-.08-21.36 5.26-15.56s.86 45.84 11.58 45.84h27.85c10.71 0 11.32-45.86 11.32-45.86l6.96 25.7-5.06 14.47-.26 4.07-1.78 6.46zm46.63 8.18-2.59-1.26zm-2.6-1.26-8.17-2.47.02-1.56.42-.8-.38-4.29.07-9.56s2.2 15.82 8.04 18.68"/><path fill="#e9d294" d="m167.68 75.94.04-5.09.38 4.3z"/><path fill="#ead799" d="m38.67 81.23 2.6-1.26zm2.6-1.26c5.83-2.86 8.04-18.68 8.04-18.68l.1 11.75-.2 2.1.21.39.02 1.97z"/><path fill="#e9d294" d="m49.42 75.53-.2-.39.18-2.1z"/><path fill="#292c2d" d="m74.17 72.23-.1-.25c-1.99-7.24-1.9-14.84-1.72-18.35l-20.69 5.88a67 67 0 0 0-.6 16.94q2.57-.7 5.18-1.3a173 173 0 0 1 17.32-2.85zm9-.87a35 35 0 0 1-3.06-12.42 56 56 0 0 1-5.1-4.16c-.11 3.66-.03 10.3 1.67 16.48q.1.36 0 .7a257 257 0 0 1 6.5-.6m57.25-.1c1.7-6.2 1.8-12.82 1.67-16.48a57 57 0 0 1-5.09 4.16 36 36 0 0 1-3.08 12.43q3.26.26 6.5.6a1.3 1.3 0 0 1 0-.7m25.62 5.2c.14-1.22.8-7.88-.6-16.94l-20.69-5.89c.19 3.5.27 11.1-1.72 18.35l-.1.26.61.07q8.73.98 17.33 2.85 2.6.6 5.17 1.3m3.32.97c2.78.9 5.58 1.87 8.1 3.35a32 32 0 0 0-4.15-1.27 71 71 0 0 0-4.24-.93 132 132 0 0 0-8.57-1.33 193 193 0 0 0-8.61-.94q-4.32-.38-8.65-.65a573 573 0 0 0-34.69-.9c-11.57 0-23.15.22-34.69.9-2.88.17-5.76.42-8.64.66a182 182 0 0 0-17.18 2.27 74 74 0 0 0-4.24.92c-1.4.35-2.81.74-4.16 1.27a41 41 0 0 1 8.1-3.36l.71-.21-.04-.18c-.05-.32-1.08-7.92.71-18.8.1-.52.46-.94.97-1.08l2.94-.84c.64-22.81 10.04-33.54 10.33-33.87-8.4 13.5-8.32 29.53-8.17 33.26l18.28-5.2h.04l.23-.04h.07q.15-.01.3.02l.06.02.22.07.09.05.18.12.05.03.03.03.05.05c.01.01.5.5 1.28 1.21-.19-6.02.1-23.3 8.33-37.61-.18.5-6.7 19.59-4.46 40.98.73.58 1.5 1.16 2.25 1.66.36.25.59.66.6 1.1 0 .07.15 6.89 3.16 12.69q.07.13.1.27c7.5-.51 15-.72 22.5-.72q11.25-.02 22.5.73.03-.16.1-.28c3.01-5.8 3.17-12.62 3.17-12.7a1.4 1.4 0 0 1 .6-1.1 36 36 0 0 0 2.24-1.65c2.25-21.4-4.28-40.48-4.45-40.98 8.22 14.32 8.52 31.6 8.33 37.61l1.27-1.21.06-.05.03-.03.05-.03.18-.12.08-.05.24-.08h.05q.15-.05.3-.03h.06l.24.03.04.01 18.28 5.2c.14-3.73.22-19.75-8.17-33.26.29.33 9.68 11.06 10.32 33.87l2.94.84c.5.14.89.56.97 1.08 1.8 10.88.76 18.48.72 18.8l-.05.18z"/><path fill="#292c2d" d="M126.7 32.65v-9.87H91.18v9.87h4.86v-5.02h10.04V58.1h-4.13v5.66h13.98V58.1h-4.14V27.63h10.05v5.02zM87.54 19.13h42.81v17.16h-12.17v-5.01h-2.74v23.17h4.14V67.4H98.3V54.45h4.13V31.28h-2.74v5.01H87.54z"/><path fill="#b93346" d="M126.7 22.78v9.87h-4.86v-5.02H111.8V58.1h4.13v5.66h-13.98V58.1h4.13V27.63H96.04v5.02h-4.86v-9.87z"/><path fill="#5f655d" d="M30.95 93.88a230 230 0 0 1 7.1-1.48 105 105 0 0 0-6.27 4.64z"/><path fill="#bfac91" d="M95.89 140.93s.5 3.19-3.97 4.55c-4.46 1.37-32.75 9.8-35.97 9.34-3.23-.45-11.42-5.92-11.42-5.92l-1.98-7.06 12.11 7.55zm25.34-.62s-.36 3.2 4.16 4.38 33.15 8.36 36.35 7.76 11.14-6.4 11.14-6.4l1.68-7.15-11.14 6.64z"/></g></svg>