<svg xmlns="http://www.w3.org/2000/svg" fill="none" viewBox="0 0 410 404"><defs><linearGradient id="vite_0" x1="6" x2="235" y1="33" y2="344" gradientUnits="userSpaceOnUse"><stop offset="0" stop-color="#41d1ff"/><stop offset="1" stop-color="#bd34fe"/></linearGradient><linearGradient id="vite_1" x1="194.7" x2="236.1" y1="8.8" y2="293" gradientUnits="userSpaceOnUse"><stop offset="0" stop-color="#ffea83"/><stop offset=".1" stop-color="#ffdd35"/><stop offset="1" stop-color="#ffa800"/></linearGradient></defs><path fill="url(#vite_0)" d="m399.6 59.5-184 329a10 10 0 0 1-17.4.1L10.6 59.6A10 10 0 0 1 21 44.8l184.2 32.9q1.8.3 3.6 0L389 44.8a10 10 0 0 1 10.5 14.7"/><path fill="url(#vite_1)" d="M293 1.6 156.8 28.3a5 5 0 0 0-4 4.6l-8.4 141.4a5 5 0 0 0 6.1 5.2l38-8.8a5 5 0 0 1 6 6l-11.3 55a5 5 0 0 0 6.3 5.9l23.4-7.2a5 5 0 0 1 6.4 5.8L201.4 323c-1.1 5.4 6 8.3 9 3.7l2.1-3.1 111-221.4A5 5 0 0 0 318 95l-39 7.6a5 5 0 0 1-5.7-6.3L298.7 8c1-3.6-2-7-5.7-6.3"/></svg>