<svg xmlns="http://www.w3.org/2000/svg" viewBox="0 0 518 518"><path fill="#2c8ebb" d="M259 0a259 259 0 1 1 0 518 259 259 0 0 1 0-518"/><path fill="#fff" d="M435 338q-5-23-29-24c-23 0-42 12-55 20l-13 7q2-18-6-44-12-29-24-39a141 141 0 0 0 17-133q-3-6-10-8-2-2-12 0c-10-21-13-23-16-25q-9-5-19-2-12 4-22 25l-2 6c-13 1-33 6-50 24l-10 6q-12 4-18 23c-7 18 0 36 7 48-9 8-22 21-28 37-9 20-9 39-9 49-7 7-18 21-19 37-2 21 6 36 10 42l3 4v8q2 12 12 17c14 7 32 10 46 3q7 9 31 10h2c4 0 58-3 74-6q10-3 16-8c10-3 38-13 65-30 18-12 25-15 39-18 13-3 22-16 20-29m-24 14c-16 4-24 7-44 20-30 20-64 30-64 30s-3 4-11 6c-14 3-67 6-72 6q-18 0-23-8c-6-16 10-23 10-23l-6-5-4-4c-3 6-4 21-11 28-9 9-26 6-37 1-11-6 1-21 1-21s-6 4-11-3q-7-11-7-33c1-16 19-32 19-32s-3-24 8-49c9-22 35-41 35-41s-22-23-14-45c5-14 7-14 9-14q10-3 16-10c22-23 49-19 49-19s13-39 25-31c4 2 17 32 17 32s14-9 16-6c9 17 10 49 6 68-7 32-23 50-29 60-2 3 17 11 29 44 11 29 1 55 3 57v1s13 1 38-14c13-9 29-18 47-18 18-1 19 20 5 23"/></svg>