<svg xmlns="http://www.w3.org/2000/svg" viewBox="-55 0 366 366"><path fill="#fff" d="M182 9.1c3 3.7 4.5 8.7 7.6 18.7L256 246.1a277 277 0 0 0-79.4-27l-43.3-146a5.6 5.6 0 0 0-10.8 0L79.8 219A277 277 0 0 0 0 246L66.8 27.7c3-10 4.5-15 7.5-18.7a25 25 0 0 1 10-7.3C88.7 0 93.9 0 104.3 0H152c10.4 0 15.7 0 20 1.8A25 25 0 0 1 182 9"/><path fill="#ff5d01" d="M190 256.5c-11 9.3-32.8 15.7-58 15.7-31 0-56.8-9.6-63.7-22.5-2.5 7.4-3 15.9-3 21.3 0 0-1.6 26.6 16.9 45.1 0-9.6 7.8-17.4 17.4-17.4 16.5 0 16.5 14.4 16.4 26v1a42.5 42.5 0 0 0 26.3 39.4 36 36 0 0 1-3.6-15.7c0-16.9 9.9-23.2 21.4-30.5 9.2-5.8 19.4-12.2 26.4-25.2a48 48 0 0 0 5.7-22.7q0-7.6-2.2-14.5"/></svg>