<svg xmlns="http://www.w3.org/2000/svg" fill="none" viewBox="0 0 180 190"><g clip-path="url(#clip0_1812_34261)"><path fill="#f2f1f0" d="M90 189c3.06 0 6.07-.85 8.73-2.47l61.97-37.66c5.54-3.37 8.97-9.7 8.97-16.54V57.62c0-6.82-3.43-13.16-8.97-16.54L98.73 3.42a16.9 16.9 0 0 0-17.45 0L19.31 41.1c-5.54 3.37-8.99 9.7-8.99 16.54v74.7a19.6 19.6 0 0 0 6.55 14.75v.03l64.41 39.43A17 17 0 0 0 90 189m.65-181.05c1.95 0 4.43 1.21 6.14 2.26l60.76 37.19c3.75 2.28 5.87 8.88 5.87 13.63l-.63 71.3c0 4.75-3.2 9.02-6.95 11.3l-60.4 36.38c-3.43 2.09-6.22 2.09-9.66 0l-61.21-36.47c-3.75-2.28-6.77-6.48-6.77-11.21V58.69c0-4.74 2.73-9.63 6.5-11.92l60.58-36.56c1.7-1.04 3.82-2.26 5.77-2.26"/><path fill="url(#paint0_linear_1812_34261)" fill-rule="evenodd" d="M97.9 11.53A15 15 0 0 0 90 9.28c-2.73 0-5.45.76-7.9 2.25L25.97 45.86c-5.02 3.07-8.13 8.82-8.13 15.07v68.1c0 6.23 3.1 12 8.13 15.07l56.13 34.33a15 15 0 0 0 15.8 0l56.13-34.33c5.02-3.07 8.13-8.84 8.13-15.07v-68.1c0-6.23-3.1-11.98-8.13-15.07z" clip-rule="evenodd"/><path fill="url(#paint1_linear_1812_34261)" fill-rule="evenodd" d="M90 10.75c1.68 0 3.57.87 5.63 2.12l58.47 35.54c3.65 2.22 6.06 6.49 6.06 11.32v70.48c0 4.82-2.41 9.1-6.06 11.32l-58.46 35.54c-1.96 1.19-3.88 1.94-5.63 1.94s-3.67-.75-5.63-1.94L25.9 141.54c-2.01-1.23-3.46-2.43-4.44-4.04s-1.62-3.82-1.62-7.28V59.74c0-4.83 2.41-9.1 6.06-11.32l58.46-35.54c2.09-1.25 3.95-2.13 5.64-2.13m7.71 169.75 58.46-35.54c4.92-2.99 7.98-8.61 7.98-14.74V59.74c0-6.13-3.06-11.75-7.98-14.74L97.71 9.46C95.6 8.18 92.89 6.75 90 6.75c-2.9 0-5.61 1.44-7.7 2.7h-.01L23.82 45c-4.92 2.99-7.98 8.61-7.98 14.74v70.48c0 3.96.74 6.95 2.2 9.36s3.52 4 5.78 5.37l58.46 35.54c2.22 1.35 4.89 2.53 7.71 2.53s5.5-1.17 7.72-2.52" clip-rule="evenodd"/><g filter="url(#filter0_ddddd_1812_34261)"><path fill="url(#paint2_linear_1812_34261)" d="M27.6 69.26v51.47c0 6.37 3.39 12.26 8.9 15.45l44.58 25.73a17.8 17.8 0 0 0 17.84 0l44.57-25.73a17.8 17.8 0 0 0 8.92-15.45V69.26c0-6.37-3.4-12.26-8.92-15.44L98.92 28.08a17.8 17.8 0 0 0-17.84 0L36.51 53.82a17.8 17.8 0 0 0-8.92 15.44"/></g><g filter="url(#filter1_ddddd_1812_34261)"><path fill="#fff" d="M58.8 86.09v17.83a4.44 4.44 0 0 0 7.6 3.15 4.5 4.5 0 0 0 1.31-3.15 4.45 4.45 0 0 1 7.61-3.15c.84.83 1.3 1.97 1.3 3.15a13.36 13.36 0 0 1-22.82 9.45 13.4 13.4 0 0 1-3.92-9.45V86.09a13.36 13.36 0 0 1 22.83-9.46 13.4 13.4 0 0 1 3.92 9.46 4.45 4.45 0 0 1-7.61 3.15 4.5 4.5 0 0 1-1.3-3.15 4.45 4.45 0 0 0-7.62-3.16 4.5 4.5 0 0 0-1.3 3.16m71.32 17.83a4.44 4.44 0 0 1-4.46 4.45h-4.46v4.46a4.45 4.45 0 1 1-8.91 0v-4.45h-8.92v4.45a4.45 4.45 0 1 1-8.91 0v-4.45H90a4.45 4.45 0 0 1-3.15-7.61A4.5 4.5 0 0 1 90 99.46h4.46v-8.92H90a4.45 4.45 0 0 1-3.15-7.6A4.5 4.5 0 0 1 90 81.62h4.46v-4.46a4.45 4.45 0 0 1 7.6-3.15 4.5 4.5 0 0 1 1.31 3.15v4.46h8.92v-4.46a4.45 4.45 0 0 1 7.6-3.15 4.5 4.5 0 0 1 1.31 3.15v4.46h4.46a4.45 4.45 0 1 1 0 8.91h-4.46v8.92h4.46a4.45 4.45 0 0 1 4.46 4.46m-17.83-13.38h-8.92v8.92h8.92z"/></g></g><defs><linearGradient id="paint0_linear_1812_34261" x1="44.33" x2="197.53" y1="22.8" y2="204.71" gradientUnits="userSpaceOnUse"><stop offset=".01" stop-color="#fff"/><stop offset="1" stop-color="#d3c7ff"/></linearGradient><linearGradient id="paint1_linear_1812_34261" x1="30.41" x2="109.46" y1="45.28" y2="173.86" gradientUnits="userSpaceOnUse"><stop offset="0" stop-color="#927be5"/><stop offset="1" stop-color="#512bd4"/></linearGradient><linearGradient id="paint2_linear_1812_34261" x1="39.85" x2="100.03" y1="55.99" y2="160.75" gradientUnits="userSpaceOnUse"><stop offset="0" stop-color="#927be5"/><stop offset="1" stop-color="#512bd4"/></linearGradient><filter id="filter0_ddddd_1812_34261" width="149.82" height="181.61" x="21.59" y="23.69" color-interpolation-filters="sRGB" filterUnits="userSpaceOnUse"><feFlood flood-opacity="0" result="BackgroundImageFix"/><feColorMatrix in="SourceAlpha" result="hardAlpha" values="0 0 0 0 0 0 0 0 0 0 0 0 0 0 0 0 0 0 127 0"/><feOffset/><feColorMatrix values="0 0 0 0 0 0 0 0 0 0 0 0 0 0 0 0 0 0 0.1 0"/><feBlend in2="BackgroundImageFix" result="effect1_dropShadow_1812_34261"/><feColorMatrix in="SourceAlpha" result="hardAlpha" values="0 0 0 0 0 0 0 0 0 0 0 0 0 0 0 0 0 0 127 0"/><feOffset dy="2"/><feGaussianBlur stdDeviation="2"/><feColorMatrix values="0 0 0 0 0 0 0 0 0 0 0 0 0 0 0 0 0 0 0.1 0"/><feBlend in2="effect1_dropShadow_1812_34261" result="effect2_dropShadow_1812_34261"/><feColorMatrix in="SourceAlpha" result="hardAlpha" values="0 0 0 0 0 0 0 0 0 0 0 0 0 0 0 0 0 0 127 0"/><feOffset dx="2" dy="7"/><feGaussianBlur stdDeviation="3.5"/><feColorMatrix values="0 0 0 0 0 0 0 0 0 0 0 0 0 0 0 0 0 0 0.09 0"/><feBlend in2="effect2_dropShadow_1812_34261" result="effect3_dropShadow_1812_34261"/><feColorMatrix in="SourceAlpha" result="hardAlpha" values="0 0 0 0 0 0 0 0 0 0 0 0 0 0 0 0 0 0 127 0"/><feOffset dx="4" dy="16"/><feGaussianBlur stdDeviation="5"/><feColorMatrix values="0 0 0 0 0 0 0 0 0 0 0 0 0 0 0 0 0 0 0.05 0"/><feBlend in2="effect3_dropShadow_1812_34261" result="effect4_dropShadow_1812_34261"/><feColorMatrix in="SourceAlpha" result="hardAlpha" values="0 0 0 0 0 0 0 0 0 0 0 0 0 0 0 0 0 0 127 0"/><feOffset dx="7" dy="29"/><feGaussianBlur stdDeviation="6"/><feColorMatrix values="0 0 0 0 0 0 0 0 0 0 0 0 0 0 0 0 0 0 0.01 0"/><feBlend in2="effect4_dropShadow_1812_34261" result="effect5_dropShadow_1812_34261"/><feBlend in="SourceGraphic" in2="effect5_dropShadow_1812_34261" result="shape"/></filter><filter id="filter1_ddddd_1812_34261" width="92.24" height="66.58" x="43.88" y="71.71" color-interpolation-filters="sRGB" filterUnits="userSpaceOnUse"><feFlood flood-opacity="0" result="BackgroundImageFix"/><feColorMatrix in="SourceAlpha" result="hardAlpha" values="0 0 0 0 0 0 0 0 0 0 0 0 0 0 0 0 0 0 127 0"/><feOffset/><feColorMatrix values="0 0 0 0 0 0 0 0 0 0 0 0 0 0 0 0 0 0 0.1 0"/><feBlend in2="BackgroundImageFix" result="effect1_dropShadow_1812_34261"/><feColorMatrix in="SourceAlpha" result="hardAlpha" values="0 0 0 0 0 0 0 0 0 0 0 0 0 0 0 0 0 0 127 0"/><feOffset dy="1"/><feGaussianBlur stdDeviation="1"/><feColorMatrix values="0 0 0 0 0 0 0 0 0 0 0 0 0 0 0 0 0 0 0.1 0"/><feBlend in2="effect1_dropShadow_1812_34261" result="effect2_dropShadow_1812_34261"/><feColorMatrix in="SourceAlpha" result="hardAlpha" values="0 0 0 0 0 0 0 0 0 0 0 0 0 0 0 0 0 0 127 0"/><feOffset dy="4"/><feGaussianBlur stdDeviation="2"/><feColorMatrix values="0 0 0 0 0 0 0 0 0 0 0 0 0 0 0 0 0 0 0.09 0"/><feBlend in2="effect2_dropShadow_1812_34261" result="effect3_dropShadow_1812_34261"/><feColorMatrix in="SourceAlpha" result="hardAlpha" values="0 0 0 0 0 0 0 0 0 0 0 0 0 0 0 0 0 0 127 0"/><feOffset dy="9"/><feGaussianBlur stdDeviation="2.5"/><feColorMatrix values="0 0 0 0 0 0 0 0 0 0 0 0 0 0 0 0 0 0 0.05 0"/><feBlend in2="effect3_dropShadow_1812_34261" result="effect4_dropShadow_1812_34261"/><feColorMatrix in="SourceAlpha" result="hardAlpha" values="0 0 0 0 0 0 0 0 0 0 0 0 0 0 0 0 0 0 127 0"/><feOffset dy="15"/><feGaussianBlur stdDeviation="3"/><feColorMatrix values="0 0 0 0 0 0 0 0 0 0 0 0 0 0 0 0 0 0 0.01 0"/><feBlend in2="effect4_dropShadow_1812_34261" result="effect5_dropShadow_1812_34261"/><feBlend in="SourceGraphic" in2="effect5_dropShadow_1812_34261" result="shape"/></filter><clipPath id="clip0_1812_34261"><path fill="#fff" d="M0 0h180v190H0z"/></clipPath></defs></svg>