<svg xmlns="http://www.w3.org/2000/svg" viewBox="0 0 1000 1000"><path fill="#639" d="M0 0h840a160 160 0 0 1 160 160v680a160 160 0 0 1-160 160H160A160 160 0 0 1 0 840z"/><path fill="#fff" d="M816.5 919.9q-48.5 0-74.5-28.3-25.6-28.5-26.8-81.7H785q.6 47 33 47 16.6 0 23.4-10.3 6.6-10.5 6.7-33 0-18.1-8.8-30a73 73 0 0 0-29.5-21.2L784 750q-34.7-16.4-50.2-39.3-15-22.7-15-63.5 0-45.5 26.3-74 27-28.2 74-28.3 45.5 0 70.3 27.9 25.3 27.9 26.4 80.1h-67.2a72 72 0 0 0-6.7-33q-5.7-11.4-22.2-11.4-29.5 0-29.5 35 0 17.6 7.2 28a65 65 0 0 0 25.4 17.5l24.7 11q38.4 17.4 55.4 43.3t17 69.1q.1 51.9-27.4 79.6-27.4 27.9-76 27.9m-225.4 0q-48.5 0-74.5-28.3-25.6-28.5-26.9-81.7h69.8q.7 47 33.1 47 16.6 0 23.3-10.3 6.7-10.5 6.7-33 0-18.1-8.7-30a73 73 0 0 0-29.5-21.2L558.5 750q-34.6-16.4-50.1-39.3-15-22.7-15-63.5 0-45.5 26.3-74 27-28.2 74-28.3 45.5 0 70.2 27.9 25.5 27.9 26.5 80.1h-67.2a72 72 0 0 0-6.7-33q-5.7-11.4-22.3-11.4-29.5 0-29.5 35 0 17.6 7.3 28a65 65 0 0 0 25.3 17.5l24.8 11q38.4 17.4 55.4 43.3t17 69.1q0 51.9-27.4 79.6-27.4 27.9-76 27.9m-234.7 0q-47.6 0-75.5-25.8-28-25.9-28-77V648.8q.1-50.7 29.6-77.1 29.9-26.2 78.5-26.2 47 0 74.5 26.8 27.8 27 27.9 80.1v13.4h-74v-13q0-20.5-8.8-30.4A27 27 0 0 0 359 612q-18.1-.1-25.4 12.4a79 79 0 0 0-6.7 36.7v146.2q0 45.9 32 46.4 15 0 22.8-10.8a52 52 0 0 0 7.8-30.5v-10.9h73.9V813q0 35.7-14 59.4a89 89 0 0 1-38.2 35.7 122 122 0 0 1-54.8 11.8"/></svg>