<svg xmlns="http://www.w3.org/2000/svg" viewBox="0 -16 114.46 114.46"><path fill="#2496ed" d="M111.91 31.47c-2.57-1.79-8.47-2.45-13.08-1.56-.54-4.46-3-8.37-7.29-11.83l-2.47-1.79-1.72 2.57a21 21 0 0 0-2.89 12.5 15 15 0 0 0 2.25 6.81 18 18 0 0 1-8.68 2H.52l-.21.89c-.75 4.46-.75 18.41 8 29.12 6.65 8.15 16.51 12.27 29.48 12.27 28.09 0 48.89-13.5 58.64-37.94 3.86.11 12.11 0 16.3-8.37.11-.22.32-.67 1.07-2.34l.43-.89-2.36-1.45ZM62.48 0H50.69v11.16h11.79zm0 13.39H50.69v11.16h11.79zm-13.94 0H36.75v11.16h11.79zm-13.94 0H22.82v11.16h11.79zM20.66 26.78H8.88v11.16h11.79V26.78Zm13.94 0H22.82v11.16h11.79zm13.94 0H36.75v11.16h11.79zm13.94 0H50.69v11.16h11.79zm13.94 0H64.63v11.16h11.79z"/></svg>