<svg xmlns="http://www.w3.org/2000/svg" preserveAspectRatio="xMidYMid" viewBox="0 -14 256 256"><path fill="#00d8ff" d="M210.48 73.82a172 172 0 0 0-8.24-2.6q.7-2.85 1.28-5.61c6.23-30.28 2.16-54.68-11.77-62.71-13.36-7.7-35.2.33-57.26 19.52a171 171 0 0 0-6.37 5.85 156 156 0 0 0-4.24-3.91C100.76 3.83 77.58-4.82 63.68 3.23 50.32 10.96 46.37 33.9 51.98 62.6a171 171 0 0 0 1.9 8.48q-4.93 1.4-9.48 2.98C17.31 83.5 0 98.3 0 113.67c0 15.86 18.58 31.78 46.81 41.43a146 146 0 0 0 6.92 2.16 168 168 0 0 0-2 9.14c-5.36 28.2-1.18 50.59 12.13 58.26 13.74 7.93 36.8-.22 59.27-19.85a146 146 0 0 0 5.34-4.92 168 168 0 0 0 6.92 6.31c21.76 18.72 43.25 26.28 56.54 18.59 13.73-7.95 18.2-32 12.4-61.27a145 145 0 0 0-1.53-6.84q2.42-.72 4.76-1.5c29.34-9.72 48.44-25.44 48.44-41.51 0-15.42-17.87-30.33-45.52-39.85m-6.36 70.99q-2.1.69-4.3 1.34a257 257 0 0 0-12.97-32.43c5.11-11 9.31-21.77 12.46-31.96q3.93 1.14 7.61 2.4c23.7 8.16 38.14 20.22 38.14 29.5 0 9.9-15.6 22.75-40.94 31.15m-10.52 20.83c2.57 12.94 2.93 24.64 1.23 33.79-1.52 8.22-4.59 13.7-8.38 15.9-8.07 4.66-25.32-1.4-43.93-17.42a157 157 0 0 1-6.43-5.87 257 257 0 0 0 21.46-27.25 256 256 0 0 0 34.67-5.34q.78 3.15 1.38 6.2M87.28 214.52c-7.89 2.78-14.16 2.86-17.96.67-8.07-4.66-11.43-22.64-6.85-46.75a157 157 0 0 1 1.87-8.5 257 257 0 0 0 34.5 5 266 266 0 0 0 21.97 27.14 135 135 0 0 1-4.88 4.5c-9.93 8.68-19.88 14.84-28.65 17.93m-36.93-69.77c-12.48-4.27-22.8-9.81-29.86-15.87-6.35-5.43-9.55-10.83-9.55-15.21 0-9.32 13.9-21.21 37.07-29.3q4.23-1.46 8.82-2.77a262 262 0 0 0 12.47 32.33 266 266 0 0 0-12.63 32.8 135 135 0 0 1-6.32-1.98m12.38-84.26c-4.81-24.59-1.62-43.14 6.42-47.8 8.57-4.95 27.5 2.12 47.47 19.84a144 144 0 0 1 3.84 3.55 262 262 0 0 0-21.81 26.99 267 267 0 0 0-34.16 5.3 160 160 0 0 1-1.76-7.88m110.43 27.27a348 348 0 0 0-7.79-12.8c8.17 1.03 16 2.4 23.34 4.07a234 234 0 0 1-8.19 22.05 381 381 0 0 0-7.37-13.32m-45.04-43.87a234 234 0 0 1 15.07 18.19 322 322 0 0 0-30.26 0 241 241 0 0 1 15.2-18.19M82.8 87.83a323 323 0 0 0-7.22 13.24 241 241 0 0 1-8.14-22.15 247 247 0 0 1 23.21-3.99 322 322 0 0 0-7.85 12.9m8.08 65.35c-8.38-.93-16.29-2.2-23.59-3.8a246 246 0 0 1 8.3-22.6 321 321 0 0 0 7.26 13.26q3.9 6.72 8.03 13.14m37.55 31.03a245 245 0 0 1-15.4-18.43q7.36.3 14.97.29 7.84 0 15.45-.34a233 233 0 0 1-15.02 18.48m52.2-57.81a232 232 0 0 1 8.59 22.52 232 232 0 0 1-23.88 4.07 382 382 0 0 0 7.86-13.03 347 347 0 0 0 7.42-13.56m-16.9 8.1a359 359 0 0 1-12.29 19.81 329 329 0 0 1-23.44.82q-11.97 0-23.18-.73a310 310 0 0 1-12.51-19.84 307 307 0 0 1-10.92-20.63 310 310 0 0 1 10.89-20.64 307 307 0 0 1 12.4-19.76 308 308 0 0 1 46.66 0 329 329 0 0 1 12.35 19.7 359 359 0 0 1 11.03 20.54 330 330 0 0 1-11 20.73m22.56-122.13c8.57 4.95 11.9 24.88 6.52 51.03q-.52 2.5-1.15 5.09a262 262 0 0 0-34.23-5.41 257 257 0 0 0-21.64-27 161 161 0 0 1 5.88-5.4c18.9-16.45 36.57-22.95 44.62-18.3M128 90.81a22.86 22.86 0 1 1 0 45.72 22.86 22.86 0 0 1 0-45.72"/></svg>