<svg xmlns="http://www.w3.org/2000/svg" xml:space="preserve" id="Layer_1" overflow="visible" viewBox="0 0 198.13 197.58"><defs id="defs3489"><linearGradient id="XMLID_17_-9" x1="174.07" x2="132.28" y1="215.55" y2="141.75" gradientUnits="userSpaceOnUse"><stop id="stop3272-4" offset="0" stop-color="#fb7655"/><stop id="stop3274-5" offset="0" stop-color="#fb7655"/><stop id="stop3276-1" offset=".41" stop-color="#e42b1e"/><stop id="stop3278-0" offset=".99" stop-color="#900"/><stop id="stop3280-3" offset="1" stop-color="#900"/></linearGradient><linearGradient id="XMLID_18_-7" x1="194.9" x2="141.03" y1="153.56" y2="117.41" gradientUnits="userSpaceOnUse"><stop id="stop3285-8" offset="0" stop-color="#871101"/><stop id="stop3287-8" offset="0" stop-color="#871101"/><stop id="stop3289-6" offset=".99" stop-color="#911209"/><stop id="stop3291-0" offset="1" stop-color="#911209"/></linearGradient><linearGradient id="XMLID_19_-4" x1="151.8" x2="97.93" y1="217.79" y2="181.64" gradientUnits="userSpaceOnUse"><stop id="stop3296-6" offset="0" stop-color="#871101"/><stop id="stop3298-7" offset="0" stop-color="#871101"/><stop id="stop3300-6" offset=".99" stop-color="#911209"/><stop id="stop3302-0" offset="1" stop-color="#911209"/></linearGradient><linearGradient id="XMLID_20_-9" x1="38.7" x2="47.05" y1="127.39" y2="181.66" gradientUnits="userSpaceOnUse"><stop id="stop3307-7" offset="0" stop-color="#fff"/><stop id="stop3309-5" offset="0" stop-color="#fff"/><stop id="stop3311-9" offset=".23" stop-color="#e57252"/><stop id="stop3313-7" offset=".46" stop-color="#de3b20"/><stop id="stop3315-8" offset=".99" stop-color="#a60003"/><stop id="stop3317-5" offset="1" stop-color="#a60003"/></linearGradient><linearGradient id="XMLID_21_-3" x1="96.13" x2="99.21" y1="76.72" y2="132.1" gradientUnits="userSpaceOnUse"><stop id="stop3322-3" offset="0" stop-color="#fff"/><stop id="stop3324-8" offset="0" stop-color="#fff"/><stop id="stop3326-3" offset=".23" stop-color="#e4714e"/><stop id="stop3328-7" offset=".56" stop-color="#be1a0d"/><stop id="stop3330-9" offset=".99" stop-color="#a80d00"/><stop id="stop3332-3" offset="1" stop-color="#a80d00"/></linearGradient><linearGradient id="XMLID_22_-7" x1="147.1" x2="156.31" y1="25.52" y2="65.22" gradientUnits="userSpaceOnUse"><stop id="stop3337-8" offset="0" stop-color="#fff"/><stop id="stop3339-7" offset="0" stop-color="#fff"/><stop id="stop3341-4" offset=".18" stop-color="#e46342"/><stop id="stop3343-1" offset=".4" stop-color="#c82410"/><stop id="stop3345-9" offset=".99" stop-color="#a80d00"/><stop id="stop3347-0" offset="1" stop-color="#a80d00"/></linearGradient><linearGradient id="XMLID_23_-9" x1="118.98" x2="158.67" y1="11.54" y2="-8.3" gradientUnits="userSpaceOnUse"><stop id="stop3352-8" offset="0" stop-color="#fff"/><stop id="stop3354-8" offset="0" stop-color="#fff"/><stop id="stop3356-5" offset=".54" stop-color="#c81f11"/><stop id="stop3358-8" offset=".99" stop-color="#bf0905"/><stop id="stop3360-4" offset="1" stop-color="#bf0905"/></linearGradient><linearGradient id="XMLID_24_-3" x1="3.9" x2="7.17" y1="113.55" y2="146.26" gradientUnits="userSpaceOnUse"><stop id="stop3365-7" offset="0" stop-color="#fff"/><stop id="stop3367-1" offset="0" stop-color="#fff"/><stop id="stop3369-3" offset=".31" stop-color="#de4024"/><stop id="stop3371-8" offset=".99" stop-color="#bf190b"/><stop id="stop3373-0" offset="1" stop-color="#bf190b"/></linearGradient><linearGradient id="XMLID_25_-9" x1="-18.56" x2="135.02" y1="155.1" y2="-2.81" gradientUnits="userSpaceOnUse"><stop id="stop3380-7" offset="0" stop-color="#bd0012"/><stop id="stop3382-9" offset="0" stop-color="#bd0012"/><stop id="stop3384-9" offset=".07" stop-color="#fff"/><stop id="stop3386-3" offset=".17" stop-color="#fff"/><stop id="stop3388-2" offset=".27" stop-color="#c82f1c"/><stop id="stop3390-4" offset=".33" stop-color="#820c01"/><stop id="stop3392-3" offset=".46" stop-color="#a31601"/><stop id="stop3394-7" offset=".72" stop-color="#b31301"/><stop id="stop3396-1" offset=".99" stop-color="#e82609"/><stop id="stop3398-2" offset="1" stop-color="#e82609"/></linearGradient><linearGradient id="XMLID_26_-2" x1="99.07" x2="52.82" y1="171.03" y2="159.62" gradientUnits="userSpaceOnUse"><stop id="stop3403-0" offset="0" stop-color="#8c0c01"/><stop id="stop3405-2" offset="0" stop-color="#8c0c01"/><stop id="stop3407-1" offset=".54" stop-color="#990c00"/><stop id="stop3409-7" offset=".99" stop-color="#a80d0e"/><stop id="stop3411-5" offset="1" stop-color="#a80d0e"/></linearGradient><linearGradient id="XMLID_27_-1" x1="178.53" x2="137.43" y1="115.51" y2="78.68" gradientUnits="userSpaceOnUse"><stop id="stop3416-7" offset="0" stop-color="#7e110b"/><stop id="stop3418-4" offset="0" stop-color="#7e110b"/><stop id="stop3420-1" offset=".99" stop-color="#9e0c00"/><stop id="stop3422-7" offset="1" stop-color="#9e0c00"/></linearGradient><linearGradient id="XMLID_28_-1" x1="193.62" x2="173.15" y1="47.94" y2="26.05" gradientUnits="userSpaceOnUse"><stop id="stop3427-1" offset="0" stop-color="#79130d"/><stop id="stop3429-1" offset="0" stop-color="#79130d"/><stop id="stop3431-7" offset=".99" stop-color="#9e120b"/><stop id="stop3433-0" offset="1" stop-color="#9e120b"/></linearGradient><linearGradient id="XMLID_31_-6" x1="26.67" x2="9.99" y1="197.34" y2="140.74" gradientUnits="userSpaceOnUse"><stop id="stop3462-4" offset="0" stop-color="#8b2114"/><stop id="stop3464-8" offset="0" stop-color="#8b2114"/><stop id="stop3466-0" offset=".43" stop-color="#9e100a"/><stop id="stop3468-8" offset=".99" stop-color="#b3100c"/><stop id="stop3470-1" offset="1" stop-color="#b3100c"/></linearGradient><linearGradient id="XMLID_32_-0" x1="154.64" x2="192.04" y1="9.8" y2="26.31" gradientUnits="userSpaceOnUse"><stop id="stop3475-2" offset="0" stop-color="#b31000"/><stop id="stop3477-2" offset="0" stop-color="#b31000"/><stop id="stop3479-9" offset=".44" stop-color="#910f08"/><stop id="stop3481-7" offset=".99" stop-color="#791c12"/><stop id="stop3483-5" offset="1" stop-color="#791c12"/></linearGradient><linearGradient id="linearGradient3448" x1="174.07" x2="132.28" y1="215.55" y2="141.75" gradientUnits="userSpaceOnUse" href="#XMLID_17_-9"/><radialGradient id="XMLID_29_-4" cx="143.83" cy="79.39" r="50.36" gradientUnits="userSpaceOnUse"><stop id="stop3440-0" offset="0" stop-color="#a80d00"/><stop id="stop3442-8" offset="0" stop-color="#a80d00"/><stop id="stop3444-5" offset=".99" stop-color="#7e0e08"/><stop id="stop3446-1" offset="1" stop-color="#7e0e08"/></radialGradient><radialGradient id="XMLID_30_-6" cx="74.09" cy="145.75" r="66.94" gradientUnits="userSpaceOnUse"><stop id="stop3451-6" offset="0" stop-color="#a30c00"/><stop id="stop3453-2" offset="0" stop-color="#a30c00"/><stop id="stop3455-1" offset=".99" stop-color="#800e08"/><stop id="stop3457-9" offset="1" stop-color="#800e08"/></radialGradient></defs><path id="polygon3282" fill="url(#linearGradient3448)" fill-rule="evenodd" d="M153.5 130.41 40.38 197.58l146.47-9.94 11.28-147.69z" clip-rule="evenodd"/><path id="polygon3293" fill="url(#XMLID_18_-7)" fill-rule="evenodd" d="m187.09 187.54-12.59-86.89-34.29 45.28z" clip-rule="evenodd"/><path id="polygon3304" fill="url(#XMLID_19_-4)" fill-rule="evenodd" d="m187.26 187.54-92.23-7.24-54.16 17.09z" clip-rule="evenodd"/><path id="polygon3319" fill="url(#XMLID_20_-9)" fill-rule="evenodd" d="m41 197.41 23.04-75.48-50.7 10.84z" clip-rule="evenodd"/><path id="polygon3334" fill="url(#XMLID_21_-3)" fill-rule="evenodd" d="M140.2 146.18 119 63.14l-60.67 56.87z" clip-rule="evenodd"/><path id="polygon3349" fill="url(#XMLID_22_-7)" fill-rule="evenodd" d="m193.32 64.31-57.35-46.84L120 69.1z" clip-rule="evenodd"/><path id="polygon3362" fill="url(#XMLID_23_-9)" fill-rule="evenodd" d="m166.5.77-33.73 18.64L111.49.52z" clip-rule="evenodd"/><path id="polygon3375" fill="url(#XMLID_24_-3)" fill-rule="evenodd" d="m0 158.09 14.13-25.77-11.43-30.7z" clip-rule="evenodd"/><path id="path3377" fill="#fff" fill-rule="evenodd" d="m1.94 100.65 11.5 32.62 49.97-11.21 57.05-53.02 16.1-51.14L111.21 0 68.1 16.13C54.53 28.76 28.18 53.75 27.23 54.22S9.83 85.81 1.94 100.65" clip-rule="evenodd"/><path id="path3400" fill="url(#XMLID_25_-9)" fill-rule="evenodd" d="M42.32 42.05c29.43-29.18 67.37-46.42 81.93-31.73 14.55 14.69-.88 50.39-30.31 79.56s-66.9 47.36-81.45 32.67c-14.56-14.68.4-51.33 29.83-80.5" clip-rule="evenodd"/><path id="path3413" fill="url(#XMLID_26_-2)" fill-rule="evenodd" d="m41 197.38 22.86-75.72 75.92 24.39c-27.45 25.74-57.98 47.5-98.78 51.33" clip-rule="evenodd"/><path id="path3424" fill="url(#XMLID_27_-1)" fill-rule="evenodd" d="m120.56 68.89 19.49 77.2c22.93-24.11 43.51-50.03 53.59-82.09z" clip-rule="evenodd"/><path id="path3435" fill="url(#XMLID_28_-1)" fill-rule="evenodd" d="M193.44 64.39c7.8-23.54 9.6-57.31-27.18-63.58l-30.18 16.67z" clip-rule="evenodd"/><path id="path3437" fill="#9e1209" fill-rule="evenodd" d="M0 157.75c1.08 38.85 29.11 39.43 41.05 39.77l-27.58-64.41z" clip-rule="evenodd"/><path id="path3448" fill="url(#XMLID_29_-4)" fill-rule="evenodd" d="M120.67 69.01a18417 18417 0 0 0 53.85 32.98c1.12.63 15.31-23.93 18.53-37.81z" clip-rule="evenodd"/><path id="path3459" fill="url(#XMLID_30_-6)" fill-rule="evenodd" d="m63.83 121.66 30.56 58.96c18.07-9.8 32.22-21.74 45.18-34.53z" clip-rule="evenodd"/><path id="path3472" fill="url(#XMLID_31_-6)" fill-rule="evenodd" d="m13.35 133.19-4.33 51.56c8.17 11.16 19.41 12.13 31.2 11.26-8.53-21.23-25.57-63.68-26.87-62.82" clip-rule="evenodd"/><path id="path3485" fill="url(#XMLID_32_-0)" fill-rule="evenodd" d="m135.9 17.61 60.71 8.52C193.37 12.4 183.42 3.54 166.46.77z" clip-rule="evenodd"/></svg>