<svg xmlns="http://www.w3.org/2000/svg" fill="none" viewBox="0 0 512 512"><rect width="512" height="512" fill="#3178c6" rx="50"/><path fill="#fff" fill-rule="evenodd" d="M317 407.4v50q12 6.4 28.8 9.5c16.8 3 22.8 3.1 35.1 3.1q18 0 34.2-3.4 16.2-3.5 28.5-11.4 12-7.8 19.3-20.6c7.3-12.8 7.1-19 7.1-31.6q0-13.6-4-23.8a43 43 0 0 0-11.8-18.2q-7.6-8-18.4-14.4c-10.8-6.4-15.2-8.2-24.2-12q-9.7-4-17.7-7.8a90 90 0 0 1-13.3-7.8 34 34 0 0 1-8.4-8.5q-3-4.5-3-10 0-5.2 2.7-9.4c2.7-4.2 4.2-5.1 7.5-7.1q4.8-3 11.9-4.6a69 69 0 0 1 15.6-1.7 99 99 0 0 1 53.2 15.7v-46.8q-11.4-4.4-25-6.5a164 164 0 0 0-31-2.1q-17.9 0-33.8 3.8a67 67 0 0 0-28 12 60 60 0 0 0-19.3 20.7q-7 12.6-7 30.1 0 22.5 13 38.2a98 98 0 0 0 39.1 26.8q10.3 4.2 19.3 8.3c9 4 11 5.5 15.4 8.4q6.4 4.4 10.2 9.5a19 19 0 0 1 1.4 20.8q-2.3 4-7 7.2c-4.8 3.2-7.2 3.6-12 4.7a72 72 0 0 1-16.6 1.8 95 95 0 0 1-61.9-22.9m-84.2-123.3H297V243H118v41h64v183h50.8z" clip-rule="evenodd"/></svg>