<!-- Uploaded to: SVG Repo, www.svgrepo.com, Generator: SVG Repo Mixer Tools -->
<!-- Modified -->
<svg width="800px" height="800px" viewBox="0 -5.28 136.41 136.41" xmlns="https://www.w3.org/2000/svg">

  <defs>
    <linearGradient id="favicon-linear" x1="0%" y1="0%" x2="100%" y2="0%">
      <stop offset="0%" stop-color="#e6c75f"/>
      <stop offset="100%" stop-color="#e65f5f"/>
    </linearGradient>
  </defs>

  <path fill="url(#favicon-linear)" d="M106.22,125c-6.67,2.08-11.62.16-16.16-3.22C69.85,106.69,48.71,93,27.62,79.2,19,73.57,10.61,67.61,2.09,61.84a4.26,4.26,0,0,1-2-4.4A41.66,41.66,0,0,1,2.31,49.2c3.56-8.72,7.28-17.38,11-26,1.65-3.76,4.91-5.31,8.83-5.91,4.24-.64,8.44-1.55,12.67-2.22,9.09-1.44,17.69-4.6,26.43-7.28C70.89,4.84,80.57,2.3,90.68,1.9a10.59,10.59,0,0,0,4.17-.82c4.17-2.06,8-1,11.25,1.55,9.32,7.13,18.45,14.5,27.66,21.77,2.58,2,3.14,4.66,2.28,7.69-3.49,12.38-6.78,24.82-10.57,37.11C122,80.36,118,91.34,114.27,102.43c-2.09,6.23-4,12.51-6,18.74A26.31,26.31,0,0,1,106.22,125ZM17.69,60.31l67.09,44.57c.19-1.06.53-1.72.33-2Q71.25,79.67,57.27,56.57a43.41,43.41,0,0,0-3.88-4.73C41.88,53.88,30.31,54.82,17.69,60.31Zm47.19-9.77a32.46,32.46,0,0,0,1.83,4c7.74,11.95,16.07,23.54,22.42,36.36.42.86,1.17,2.07,3.19.95-.32-7.32-.52-14.95-1-22.55-.51-7.84.93-15.8-1.15-24.17C81.68,47.75,72.79,45.92,64.88,50.54ZM103.39,98.2c.58-.31,1.34-.45,1.48-.83,6.71-17.88,11.82-36.28,17.22-54.58.21-.72-.1-1.59-.2-2.94a47.42,47.42,0,0,0-20,4.9C100.53,62.68,101.89,80.41,103.39,98.2ZM22.8,29c-3.25,7.07-6.48,13.2-8.21,20.2,6.22-.35,23.18-4.37,29.6-7A176.93,176.93,0,0,0,22.8,29Zm65.72,6.84c-4.69-7.56-11.09-11.79-16.36-17.05-.78.57-1.43.81-1.65,1.25-2.82,5.54-5.64,11.08-8.28,16.71-.36.77.25,2,.46,3.38C71.4,39.53,79.39,37.84,88.52,35.88Zm14-3.13c8.65-.57,14.29-2.13,18.5-5-6.18-6.51-11-10.11-16.19-11.79C102.91,21.19,100.82,26.33,102.57,32.75ZM58.16,20.68c-8.31,1.52-15.72,2.78-23.87,5.43,6,4.37,11.24,8,17.82,10.64Zm37.36-8.76c-5.44.8-10-.61-14.49,2.82,2,2.17,3.47,4.23,5.37,5.77s3,4.38,6.36,3.38Z"/>

</svg>