<svg xmlns="http://www.w3.org/2000/svg" width="800" height="800" viewBox="0 -5.3 136.4 136.4"><defs><linearGradient id="favicon-linear" x1="0%" x2="100%" y1="0%" y2="0%"><stop offset="0%" stop-color="#e6c75f"/><stop offset="100%" stop-color="#e65f5f"/></linearGradient></defs><path fill="url(#favicon-linear)" d="M106.2 125c-6.7 2-11.6.2-16.1-3.2C69.9 106.7 48.7 93 27.6 79.2Q14.8 70.7 2.1 61.8a4 4 0 0 1-2-4.4 42 42 0 0 1 2.2-8.2l11-26c1.7-3.8 5-5.3 8.8-6 4.3-.5 8.5-1.5 12.7-2.1 9.1-1.5 17.7-4.6 26.4-7.3 9.7-3 19.4-5.5 29.5-5.9a11 11 0 0 0 4.2-.8c4.1-2 8-1 11.2 1.5l27.7 21.8q3.7 3.1 2.2 7.7-5 18.6-10.5 37.1-5.5 16.7-11.2 33.2l-6 18.8zM17.7 60.3l67 44.6q.6-1.5.4-2-13.8-23.2-27.8-46.3a43 43 0 0 0-4-4.8c-11.4 2-23 3-35.6 8.5m47.2-9.8 1.8 4c7.7 12 16 23.6 22.4 36.4.5.9 1.2 2 3.2 1q-.3-11.2-1-22.6c-.5-7.8 1-15.8-1.1-24.2-8.5 2.6-17.4.8-25.3 5.4m38.5 47.7q1-.3 1.5-.8c6.7-18 11.8-36.3 17.2-54.6q.1-1-.2-3a47 47 0 0 0-20 5c-1.4 17.9 0 35.6 1.5 53.4M22.8 29c-3.3 7-6.5 13.2-8.2 20.2a141 141 0 0 0 29.6-7A177 177 0 0 0 22.8 29m65.7 6.8c-4.7-7.5-11-11.7-16.3-17L70.5 20l-8.3 16.8c-.3.7.3 2 .5 3.3 8.7-.6 16.7-2.3 25.8-4.2Zm14-3a38 38 0 0 0 18.5-5 40 40 0 0 0-16.2-11.9c-1.9 5.3-4 10.4-2.2 16.9ZM58.2 20.6c-8.4 1.5-15.8 2.8-24 5.4 6 4.4 11.3 8 18 10.6Zm37.3-8.8c-5.4.8-10-.6-14.5 2.8 2 2.2 3.5 4.3 5.4 5.8s3 4.4 6.4 3.4Z"/></svg>